<svg xmlns="http://www.w3.org/2000/svg" xmlns:xlink="http://www.w3.org/1999/xlink" version="1.1" width="456" height="456" viewBox="0 0 456 456" xml:space="preserve">
<desc>Created with Fabric.js 3.5.0</desc>
<defs>
</defs>
<rect x="0" y="0" width="100%" height="100%" fill="rgba(255,255,255,0)"/>
<g transform="matrix(1.9325 0 0 1.9325 227.0688 228.0009)" id="503243">
<g style="" vector-effect="non-scaling-stroke">
		<g transform="matrix(1 0 0 1 0 -5)">
<rect style="stroke: none; stroke-width: 1; stroke-dasharray: none; stroke-linecap: butt; stroke-dashoffset: 0; stroke-linejoin: miter; stroke-miterlimit: 4; is-custom-font: none; font-file-url: none; fill: rgb(255,152,36); fill-rule: nonzero; opacity: 1;" x="-97.5" y="-70" rx="5" ry="5" width="195" height="140"/>
</g>
		<g transform="matrix(1 0 0 1 0 40)" clip-path="url(#CLIPPATH_1)">
<clipPath id="CLIPPATH_1">
	<rect transform="matrix(1 0 0 1 0 -45)" id="clip0_7_2" x="-87.5" y="-60" rx="5" ry="5" width="175" height="120"/>
</clipPath>
<rect style="stroke: none; stroke-width: 1; stroke-dasharray: none; stroke-linecap: butt; stroke-dashoffset: 0; stroke-linejoin: miter; stroke-miterlimit: 4; is-custom-font: none; font-file-url: none; fill: rgb(1,138,124); fill-rule: nonzero; opacity: 1;" x="-87.5" y="-15" rx="0" ry="0" width="175" height="30"/>
</g>
		<g transform="matrix(1 0 0 1 0 10)" clip-path="url(#CLIPPATH_2)">
<clipPath id="CLIPPATH_2">
	<rect transform="matrix(1 0 0 1 0 -15)" id="clip0_7_2" x="-87.5" y="-60" rx="5" ry="5" width="175" height="120"/>
</clipPath>
<rect style="stroke: none; stroke-width: 1; stroke-dasharray: none; stroke-linecap: butt; stroke-dashoffset: 0; stroke-linejoin: miter; stroke-miterlimit: 4; is-custom-font: none; font-file-url: none; fill: rgb(0,151,136); fill-rule: nonzero; opacity: 1;" x="-87.5" y="-15" rx="0" ry="0" width="175" height="30"/>
</g>
		<g transform="matrix(1 0 0 1 0 -20)" clip-path="url(#CLIPPATH_3)">
<clipPath id="CLIPPATH_3">
	<rect transform="matrix(1 0 0 1 0 15)" id="clip0_7_2" x="-87.5" y="-60" rx="5" ry="5" width="175" height="120"/>
</clipPath>
<rect style="stroke: none; stroke-width: 1; stroke-dasharray: none; stroke-linecap: butt; stroke-dashoffset: 0; stroke-linejoin: miter; stroke-miterlimit: 4; is-custom-font: none; font-file-url: none; fill: rgb(3,176,159); fill-rule: nonzero; opacity: 1;" x="-87.5" y="-15" rx="0" ry="0" width="175" height="30"/>
</g>
		<g transform="matrix(1 0 0 1 0 -50)" clip-path="url(#CLIPPATH_4)">
<clipPath id="CLIPPATH_4">
	<rect transform="matrix(1 0 0 1 0 45)" id="clip0_7_2" x="-87.5" y="-60" rx="5" ry="5" width="175" height="120"/>
</clipPath>
<rect style="stroke: none; stroke-width: 1; stroke-dasharray: none; stroke-linecap: butt; stroke-dashoffset: 0; stroke-linejoin: miter; stroke-miterlimit: 4; is-custom-font: none; font-file-url: none; fill: rgb(50,201,186); fill-rule: nonzero; opacity: 1;" x="-87.5" y="-15" rx="0" ry="0" width="175" height="30"/>
</g>
		<g transform="matrix(1 0 0 1 0 55)">
<rect style="stroke: none; stroke-width: 1; stroke-dasharray: none; stroke-linecap: butt; stroke-dashoffset: 0; stroke-linejoin: miter; stroke-miterlimit: 4; is-custom-font: none; font-file-url: none; fill: rgb(204,123,32); fill-rule: nonzero; opacity: 1;" x="-107.5" y="-10" rx="5" ry="5" width="215" height="20"/>
</g>
		<g transform="matrix(1 0 0 1 50 40)">
<path style="stroke: none; stroke-width: 1; stroke-dasharray: none; stroke-linecap: butt; stroke-dashoffset: 0; stroke-linejoin: miter; stroke-miterlimit: 4; is-custom-font: none; font-file-url: none; fill: rgb(217,217,217); fill-rule: nonzero; opacity: 1;" transform=" translate(-167.5, -115)" d="M 185 112 C 185 110.895 184.105 110 183 110 H 156.25 C 152.798 110 150 112.798 150 116.25 C 150 118.321 151.679 120 153.75 120 H 183 C 184.105 120 185 119.105 185 118 V 112 Z" stroke-linecap="round"/>
</g>
</g>
</g>
</svg>