<svg width="395" height="198" viewBox="0 0 395 198" fill="none" xmlns="http://www.w3.org/2000/svg">
<g clip-path="url(#clip0_72_5262)">
<path d="M-3.05176e-05 197.133L394.266 197.133L394.266 -1.52588e-05L-3.05176e-05 -1.52588e-05L-3.05176e-05 197.133Z" fill="#FF664A"/>
<path d="M-9.15527e-05 157.706L394.266 83.7815L394.266 110.887L-9.15527e-05 184.812V157.706Z" fill="#EE523B"/>
<path d="M-0.000152588 133.065L394.266 59.1398L394.266 86.2456L-0.000152588 160.17V133.065Z" fill="#DD3D2C"/>
<path d="M-0.000152588 108.423L394.266 34.4982L394.266 61.604L-0.000152588 135.529V108.423Z" fill="#CC291E"/>
<path d="M-0.000152588 83.7815L394.266 9.85664L394.266 36.9624L-0.000152588 110.887V83.7815Z" fill="#BB140F"/>
<path d="M-0.000152588 -5.34058e-05L394.266 -5.34058e-05V12.3208L-0.000152588 86.2456V-5.34058e-05Z" fill="#AA0000"/>
</g>
<defs>
<clipPath id="clip0_72_5262">
<rect width="394.266" height="197.133" fill="white" transform="matrix(-1 0 0 -1 394.266 197.133)"/>
</clipPath>
</defs>
</svg>
