<svg width="392" height="151" viewBox="0 0 392 151" fill="none" xmlns="http://www.w3.org/2000/svg">
<path d="M119.07 17.7428C92.2915 21.8489 64.337 23.8078 36.9215 21.3969C24.3775 20.3233 12.005 18.2702 0 15.1059V2.06648e-05H206.731C178.335 6.25333 150.185 12.8268 121.569 17.3661C120.736 17.498 119.903 17.611 119.07 17.7428Z" fill="#FF9102"/>
<path d="M392 150.682H0V15.1059C12.005 18.2702 24.3775 20.3421 36.9215 21.4157C64.337 23.8078 92.2915 21.8678 119.07 17.7617C119.903 17.6298 120.736 17.498 121.569 17.385C150.185 12.8645 178.336 6.27216 206.731 0.0188578H392V150.682Z" fill="#FF9A04"/>
<path d="M117.208 41.2492C117.992 41.0985 118.776 40.929 119.536 40.7783C167.605 30.8898 214.767 15.6333 264.943 7.51528C307.622 0.621572 350.571 2.01537 392 9.43646V150.682H0V42.3982C12.8135 45.7132 26.0925 47.6155 39.4695 48.2183C65.758 49.4614 92.0465 46.2971 117.208 41.2492Z" fill="#FFA207"/>
<path d="M0 150.682V69.8035C13.622 73.2692 27.8075 74.9455 41.993 75.0208C67.179 75.1715 91.777 70.7452 115.321 64.7556C116.056 64.5673 116.767 64.3789 117.502 64.1906C162.484 52.5127 207.098 36.6723 255.29 28.008C301.031 19.777 347.483 21.5287 391.975 30.3813V150.682H0Z" fill="#FFAB09"/>
<path d="M44.541 101.823C68.6 100.693 91.5565 95.1934 113.46 88.2432C114.146 88.036 114.807 87.81 115.493 87.6028C157.388 74.1168 199.455 57.7489 245.662 48.482C294.368 38.7253 344.495 40.7972 392 51.2696V150.682H0V97.3406C14.455 101.032 29.547 102.52 44.541 101.823Z" fill="#FFB40B"/>
<path d="M392 150.682H0V125.01C15.2635 128.946 31.2865 130.189 47.089 128.626C70.021 126.347 91.3115 119.642 111.597 111.75C112.234 111.505 112.847 111.26 113.484 111.015C152.292 95.7396 191.81 78.8256 236.057 68.9747C287.63 57.4852 341.603 59.7454 392.024 72.1014V150.682H392Z" fill="#FFBC09"/>
<path d="M111.451 134.427C147.172 117.344 184.142 99.9587 226.405 89.4675C277.512 76.7725 332.073 78.0157 382.69 90.4658C385.826 91.238 388.913 92.0479 392.025 92.8955V150.682H70.5845C84.3045 146.67 97.216 141.151 109.711 135.237C110.299 134.973 110.863 134.691 111.451 134.427Z" fill="#FFC407"/>
<path d="M392 150.682H122.01C150.944 134.521 181.667 119.698 216.776 109.96C263.767 96.9262 314.776 95.8903 362.551 105.986C372.547 108.096 382.42 110.732 392.024 113.84V150.682H392Z" fill="#FFCD04"/>
<path d="M342.387 121.525C353.951 123.522 365.319 126.29 376.344 129.775C381.661 131.451 386.879 133.316 392 135.331V150.682H157.633C173.043 142.828 189.409 135.953 207.147 130.453C249.998 117.136 297.479 113.746 342.387 121.525Z" fill="#FFD502"/>
<path d="M322.248 137.045C340.697 139.419 358.729 144.033 375.364 150.682H198.229C236.866 137.309 280.452 131.658 322.248 137.045Z" fill="#FFDD00"/>
</svg>
