<svg width="392" height="294" viewBox="0 0 392 294" fill="none" xmlns="http://www.w3.org/2000/svg">
<g clip-path="url(#clip0_72_5089)">
<path d="M392 0H0V294H392V0Z" fill="#EE5522"/>
<path d="M-1.52588e-05 588C324.743 588 588 324.743 588 -9.15527e-05C588 -324.743 324.743 -588 -1.52588e-05 -588C-324.743 -588 -588 -324.743 -588 -9.15527e-05C-588 324.743 -324.743 588 -1.52588e-05 588Z" fill="url(#paint0_radial_72_5089)"/>
<g opacity="0.5">
<path d="M3.05176e-05 392C216.496 392 392 216.496 392 -6.10352e-05C392 -216.496 216.496 -392 3.05176e-05 -392C-216.496 -392 -392 -216.496 -392 -6.10352e-05C-392 216.496 -216.496 392 3.05176e-05 392Z" fill="url(#paint1_radial_72_5089)"/>
<path d="M6.10352e-05 352.8C194.846 352.8 352.8 194.846 352.8 -8.39233e-05C352.8 -194.846 194.846 -352.8 6.10352e-05 -352.8C-194.846 -352.8 -352.8 -194.846 -352.8 -8.39233e-05C-352.8 194.846 -194.846 352.8 6.10352e-05 352.8Z" fill="url(#paint2_radial_72_5089)"/>
<path d="M-6.10352e-05 333.2C184.021 333.2 333.2 184.021 333.2 -8.39233e-05C333.2 -184.021 184.021 -333.2 -6.10352e-05 -333.2C-184.021 -333.2 -333.2 -184.021 -333.2 -8.39233e-05C-333.2 184.021 -184.021 333.2 -6.10352e-05 333.2Z" fill="url(#paint3_radial_72_5089)"/>
<path d="M-9.15527e-05 323.596C178.717 323.596 323.596 178.717 323.596 -7.62939e-05C323.596 -178.717 178.717 -323.596 -9.15527e-05 -323.596C-178.717 -323.596 -323.596 -178.717 -323.596 -7.62939e-05C-323.596 178.717 -178.717 323.596 -9.15527e-05 323.596Z" fill="url(#paint4_radial_72_5089)"/>
<path d="M0 284.2C156.959 284.2 284.2 156.959 284.2 -6.10352e-05C284.2 -156.959 156.959 -284.2 0 -284.2C-156.959 -284.2 -284.2 -156.959 -284.2 -6.10352e-05C-284.2 156.959 -156.959 284.2 0 284.2Z" fill="url(#paint5_radial_72_5089)"/>
<path d="M6.10352e-05 245C135.31 245 245 135.31 245 -6.10352e-05C245 -135.31 135.31 -245 6.10352e-05 -245C-135.31 -245 -245 -135.31 -245 -6.10352e-05C-245 135.31 -135.31 245 6.10352e-05 245Z" fill="url(#paint6_radial_72_5089)"/>
<path d="M0.000183105 230.3C127.191 230.3 230.3 127.191 230.3 -7.62939e-05C230.3 -127.191 127.191 -230.3 0.000183105 -230.3C-127.191 -230.3 -230.3 -127.191 -230.3 -7.62939e-05C-230.3 127.191 -127.191 230.3 0.000183105 230.3Z" fill="url(#paint7_radial_72_5089)"/>
<path d="M-3.05176e-05 176.4C97.423 176.4 176.4 97.423 176.4 -4.57764e-05C176.4 -97.4231 97.423 -176.4 -3.05176e-05 -176.4C-97.4231 -176.4 -176.4 -97.4231 -176.4 -4.57764e-05C-176.4 97.423 -97.4231 176.4 -3.05176e-05 176.4Z" fill="url(#paint8_radial_72_5089)"/>
<path d="M-1.52588e-05 147C81.1858 147 147 81.1858 147 -7.62939e-05C147 -81.1859 81.1858 -147 -1.52588e-05 -147C-81.1859 -147 -147 -81.1859 -147 -7.62939e-05C-147 81.1858 -81.1859 147 -1.52588e-05 147Z" fill="url(#paint9_radial_72_5089)"/>
<path d="M9.15527e-05 97.9999C54.124 97.9999 98.0001 54.1238 98.0001 -6.10352e-05C98.0001 -54.124 54.124 -98.0001 9.15527e-05 -98.0001C-54.1238 -98.0001 -97.9999 -54.124 -97.9999 -6.10352e-05C-97.9999 54.1238 -54.1238 97.9999 9.15527e-05 97.9999Z" fill="url(#paint10_radial_72_5089)"/>
<path d="M-0.000106812 74.4799C41.1341 74.4799 74.4799 41.1341 74.4799 -4.57764e-05C74.4799 -41.1342 41.1341 -74.48 -0.000106812 -74.48C-41.1343 -74.48 -74.4801 -41.1342 -74.4801 -4.57764e-05C-74.4801 41.1341 -41.1343 74.4799 -0.000106812 74.4799Z" fill="url(#paint11_radial_72_5089)"/>
<path d="M6.10352e-05 48.9999C27.062 48.9999 49.0001 27.0619 49.0001 -9.15527e-05C49.0001 -27.062 27.062 -49.0001 6.10352e-05 -49.0001C-27.0619 -49.0001 -48.9999 -27.062 -48.9999 -9.15527e-05C-48.9999 27.0619 -27.0619 48.9999 6.10352e-05 48.9999Z" fill="url(#paint12_radial_72_5089)"/>
</g>
<path d="M11.3217 34.6548C9.08797 35.3326 6.79191 35.7979 4.4771 36.0397C2.16148 36.2793 -0.170685 36.2947 -2.4792 36.0862C-4.78772 35.8777 -7.07038 35.4445 -9.28659 34.8019C-11.5036 34.1572 -13.652 33.3022 -15.6963 32.2516C-17.7406 31.2011 -19.6801 29.9572 -21.4806 28.5451C-23.2818 27.1308 -24.9419 25.5474 -26.431 23.8217C-27.9201 22.0961 -29.2405 20.2289 -30.3658 18.2581C-31.4926 16.283 -32.4236 14.2065 -33.1525 12.0664C-32.333 14.1735 -31.3156 16.1985 -30.114 18.1039C-28.9146 20.0101 -27.5318 21.7945 -25.9947 23.4251C-24.4568 25.058 -22.7646 26.537 -20.9523 27.8372C-19.1392 29.1396 -17.2029 30.2645 -15.1836 31.1915C-13.1634 32.1207 -11.0571 32.8533 -8.90883 33.3779C-6.75756 33.904 -4.56214 34.2212 -2.35996 34.3232C-0.157772 34.4253 2.04757 34.3159 4.21888 33.9962C6.3902 33.6764 8.52448 33.1449 10.588 32.4189C11.2004 32.2035 11.8509 32.5399 12.0663 33.1523C12.2817 33.7647 11.9827 34.4217 11.3681 34.6379C11.3526 34.6435 11.3394 34.6484 11.3231 34.6518L11.3217 34.6548Z" fill="url(#paint13_linear_72_5089)"/>
<path d="M56.3743 22.671C54.8468 26.2491 52.981 29.679 50.8098 32.8935C48.635 36.1066 46.1561 39.1006 43.4168 41.8246C40.6774 44.5486 37.6789 46.999 34.4843 49.1401C31.286 51.2799 27.8928 53.1068 24.3614 54.5914C20.8301 56.076 17.1641 57.2197 13.4324 58.0056C9.69691 58.7902 5.89692 59.2134 2.09837 59.2659C-1.70017 59.3183 -5.4986 59.0037 -9.22024 58.3291C-12.9492 57.6519 -16.5978 56.6159 -20.1109 55.2538C-16.5428 56.4649 -12.8674 57.3354 -9.14742 57.8425C-5.42875 58.3534 -1.66912 58.4995 2.05948 58.2839C5.79176 58.0697 9.493 57.4937 13.0945 56.5728C16.6998 55.6532 20.2103 54.3862 23.5572 52.8011C26.9077 51.2173 30.0996 49.3129 33.0709 47.1322C36.0472 44.9492 38.8042 42.4861 41.2937 39.7838C43.7832 37.0814 46.0062 34.1486 47.9241 31.0339C49.8421 27.9191 51.4499 24.6248 52.7336 21.2125C53.1147 20.1998 54.2412 19.7296 55.2538 20.1107C56.2665 20.4918 56.7849 21.5774 56.4025 22.5937C56.3931 22.6195 56.3851 22.6416 56.372 22.666L56.3743 22.671Z" fill="url(#paint14_linear_72_5089)"/>
<path d="M46.8577 59.7761C42.9678 62.6948 38.8043 65.2416 34.4449 67.3645C30.0824 69.4835 25.5277 71.1753 20.8598 72.412C16.1918 73.6488 11.4144 74.4273 6.61791 74.7485C1.81824 75.0659 -2.99679 74.9229 -7.7475 74.3229C-12.4982 73.7229 -17.1814 72.6698 -21.7124 71.1882C-26.2465 69.7029 -30.6247 67.786 -34.7695 65.4687C-38.9143 63.1514 -42.8296 60.4368 -46.4368 57.3805C-50.0503 54.3167 -53.3524 50.915 -56.3042 47.2448C-53.1985 50.7858 -49.7639 54.0253 -46.0538 56.8993C-42.3475 59.7765 -38.3689 62.2844 -34.1979 64.3814C-30.0237 66.4822 -25.657 68.1719 -21.1826 69.426C-16.7051 70.6837 -12.113 71.5063 -7.49918 71.8822C-2.88222 72.2617 1.76333 72.1952 6.34278 71.6915C10.9291 71.1885 15.4531 70.2452 19.837 68.8758C24.2209 67.5064 28.4604 65.7209 32.4833 63.5478C36.5063 61.3747 40.3058 58.8134 43.8282 55.9217C44.8736 55.0637 46.3869 55.2587 47.2449 56.3041C48.103 57.3496 47.9857 58.8488 46.9365 59.71C46.9103 59.7321 46.8877 59.751 46.8583 59.7692L46.8577 59.7761Z" fill="url(#paint15_linear_72_5089)"/>
<path d="M90.2359 -12.8302C90.935 -7.03654 91.0838 -1.18162 90.6742 4.62248C90.2589 10.4276 89.2842 16.1761 87.7687 21.7692C86.2532 27.3623 84.1958 32.7942 81.6517 37.9716C79.1018 43.15 76.0641 48.0681 72.5902 52.6452C69.1163 57.2223 65.2118 61.4574 60.9536 65.2772C56.6895 69.098 52.0706 72.4977 47.1755 75.4148C42.2803 78.3319 37.1101 80.772 31.7696 82.6869C26.4175 84.6039 20.901 85.9945 15.3157 86.8599C20.8591 85.7571 26.2864 84.1314 31.4992 82.0002C36.7131 79.8748 41.7066 77.2449 46.3885 74.1684C51.0761 71.0908 55.4522 67.5667 59.4401 63.6692C63.4337 59.7707 67.0438 55.492 70.2027 50.9227C73.3673 46.3524 76.0855 41.4846 78.3097 36.4234C80.5388 31.3552 82.2729 26.0878 83.4801 20.7103C84.6874 15.3328 85.3755 9.85569 85.5309 4.37106C85.6863 -1.11356 85.3042 -6.59895 84.4125 -11.9945C84.1481 -13.5958 85.2587 -15.0514 86.86 -15.3159C88.4613 -15.5803 89.949 -14.5589 90.2144 -12.9518C90.2216 -12.9113 90.2277 -12.8766 90.2291 -12.835L90.2359 -12.8302Z" fill="url(#paint16_linear_72_5089)"/>
<path d="M115.516 -37.7394C117.776 -30.2937 119.326 -22.6402 120.133 -14.9241C120.931 -7.20541 120.982 0.568459 120.287 8.26351C119.592 15.9586 118.148 23.5674 116.007 30.9548C113.857 38.3448 111.007 45.506 107.506 52.3204C104.004 59.1348 99.8575 65.5998 95.1504 71.6014C90.436 77.6057 85.1582 83.1392 79.4059 88.1029C73.6537 93.0666 67.4297 97.4678 60.8606 101.219C54.2767 104.975 47.3551 108.078 40.2216 110.508C47.2451 107.776 53.9952 104.385 60.3466 100.38C66.7006 96.3816 72.6486 91.7722 78.0839 86.6485C83.5267 81.5221 88.4569 75.8815 92.7908 69.8405C97.1321 63.7968 100.882 57.3426 103.972 50.6114C107.069 43.8775 109.511 36.8565 111.26 29.6956C113.013 22.5247 114.071 15.2067 114.411 7.86604C114.751 0.525418 114.387 -6.82571 113.321 -14.0634C112.255 -21.3011 110.483 -28.4154 108.063 -35.2937C107.345 -37.3351 108.466 -39.5036 110.508 -40.2216C112.549 -40.9396 114.739 -39.9429 115.46 -37.8941C115.479 -37.8425 115.495 -37.7983 115.506 -37.7441L115.516 -37.7394Z" fill="url(#paint17_linear_72_5089)"/>
<path d="M128.953 80.29C123.639 88.4361 117.556 96.0707 110.815 103.042C104.066 110.009 96.6631 116.304 88.7362 121.821C80.8094 127.339 72.3633 132.07 63.5685 135.954C54.7652 139.834 45.6181 142.859 36.2793 144.981C26.9405 147.103 17.4185 148.327 7.88955 148.642C-1.64784 148.952 -11.1872 148.345 -20.5621 146.825C-29.9369 145.305 -39.1522 142.882 -48.0221 139.605C-56.9089 136.319 -65.4419 132.184 -73.5 127.306C-65.241 131.836 -56.5701 135.575 -47.6316 138.439C-38.6979 141.311 -29.505 143.303 -20.2315 144.39C-10.9496 145.483 -1.58703 145.672 7.67983 144.968C16.9552 144.269 26.1482 142.674 35.0764 140.224C44.0131 137.779 52.6983 134.477 60.9604 130.397C69.2358 126.315 77.0929 121.447 84.3953 115.875C91.6976 110.303 98.4438 104.047 104.518 97.2111C110.592 90.3752 115.981 82.9624 120.623 75.1185C122.001 72.7907 124.978 72.1221 127.306 73.4999C129.633 74.8778 130.439 77.7756 129.056 80.1118C129.022 80.1712 128.992 80.2221 128.949 80.2767L128.953 80.29Z" fill="url(#paint18_linear_72_5089)"/>
<path d="M56.6089 173.274C45.4403 176.663 33.96 178.99 22.386 180.199C10.8079 181.397 -0.852924 181.473 -12.3955 180.431C-23.9381 179.388 -35.3514 177.223 -46.4324 174.01C-57.5175 170.786 -68.2593 166.511 -78.4809 161.258C-88.7025 156.006 -98.3999 149.786 -107.402 142.726C-116.409 135.654 -124.709 127.737 -132.155 119.109C-139.6 110.48 -146.202 101.144 -151.828 91.2907C-157.463 81.4149 -162.118 71.0325 -165.762 60.3323C-161.665 70.8676 -156.578 80.9927 -150.57 90.5197C-144.573 100.051 -137.658 108.973 -129.973 117.126C-122.283 125.29 -113.822 132.685 -104.761 139.186C-95.6954 145.698 -86.0142 151.323 -75.9174 155.958C-65.8165 160.603 -55.2849 164.267 -44.5436 166.89C-33.7873 169.52 -22.8102 171.106 -11.7993 171.616C-0.788368 172.127 10.2383 171.58 21.0949 169.981C31.9515 168.382 42.6229 165.725 52.9403 162.095C56.0024 161.018 59.2552 162.7 60.3322 165.762C61.4091 168.824 59.9141 172.109 56.8409 173.19C56.7636 173.218 56.6973 173.242 56.6159 173.259L56.6089 173.274Z" fill="url(#paint19_linear_72_5089)"/>
<path d="M197.311 79.349C191.964 91.8721 185.434 103.877 177.835 115.127C170.223 126.373 161.547 136.853 151.959 146.387C142.371 155.921 131.877 164.497 120.695 171.991C109.501 179.48 97.6252 185.874 85.2654 191.07C72.9056 196.266 60.0749 200.269 47.0137 203.02C33.9396 205.766 20.6396 207.247 7.34471 207.431C-5.9502 207.614 -19.2447 206.513 -32.2704 204.152C-45.322 201.782 -58.0918 198.156 -70.3877 193.389C-57.8994 197.627 -45.0356 200.674 -32.0156 202.449C-19.0002 204.237 -5.84151 204.748 7.20858 203.994C20.2716 203.244 33.2259 201.228 45.8313 198.005C58.4496 194.786 70.7365 190.352 82.4505 184.804C94.1775 179.261 105.349 172.596 115.749 164.963C126.166 157.322 135.815 148.702 144.528 139.243C153.242 129.785 161.022 119.521 167.735 108.619C174.448 97.7173 180.075 86.1871 184.568 74.2439C185.902 70.6996 189.844 69.0539 193.389 70.3877C196.933 71.7215 198.748 75.5211 197.409 79.0782C197.376 79.1685 197.348 79.2458 197.302 79.3314L197.311 79.349Z" fill="url(#paint20_linear_72_5089)"/>
<path d="M223.796 -119.458C231.14 -104.97 237.103 -89.798 241.557 -74.2277C245.997 -58.6491 248.92 -42.6863 250.281 -26.6149C251.641 -10.5436 251.431 5.62198 249.706 21.5852C247.966 37.5567 244.703 53.3116 239.974 68.59C235.245 83.8683 229.065 98.6618 221.564 112.706C214.048 126.759 205.204 140.048 195.178 152.337C185.152 164.626 173.952 175.93 161.807 186.023C149.634 196.131 136.529 205.02 122.745 212.601C136.194 204.439 148.841 195.021 160.446 184.484C172.06 173.962 182.616 162.33 191.933 149.826C201.264 137.314 209.355 123.931 216.075 109.941C222.809 95.9431 228.178 81.3156 232.09 66.3576C236.016 51.3914 238.492 36.0723 239.491 20.7172C240.496 5.33979 240.018 -10.0879 238.056 -25.3019C236.094 -40.516 232.68 -55.4962 227.865 -69.989C223.051 -84.4819 216.829 -98.4651 209.361 -111.728C207.145 -115.665 208.664 -120.529 212.601 -122.745C216.537 -124.961 221.4 -123.706 223.624 -119.755C223.682 -119.656 223.731 -119.571 223.774 -119.464L223.796 -119.458Z" fill="url(#paint21_linear_72_5089)"/>
<path d="M168.688 215.195C154.684 225.702 139.695 234.87 124.002 242.512C108.296 250.141 91.8994 256.232 75.0949 260.684C58.2903 265.136 41.0917 267.939 23.8242 269.095C6.54544 270.238 -10.7887 269.723 -27.8912 267.563C-44.9938 265.403 -61.8534 261.612 -78.1649 256.278C-94.4878 250.931 -110.249 244.03 -125.17 235.688C-140.092 227.346 -154.187 217.573 -167.173 206.57C-180.181 195.541 -192.069 183.294 -202.695 170.082C-191.515 182.829 -179.15 194.491 -165.794 204.838C-152.451 215.196 -138.128 224.224 -123.113 231.773C-108.085 239.336 -92.3654 245.419 -76.2576 249.934C-60.1386 254.462 -43.607 257.423 -26.9973 258.776C-10.3762 260.143 6.34774 259.903 22.8338 258.09C39.3446 256.279 55.631 252.883 71.4131 247.953C87.1952 243.024 102.457 236.596 116.94 228.773C131.422 220.949 145.101 211.729 157.781 201.319C161.545 198.23 166.993 198.932 170.082 202.695C173.171 206.459 172.748 211.856 168.971 214.956C168.877 215.036 168.796 215.104 168.69 215.17L168.688 215.195Z" fill="url(#paint22_linear_72_5089)"/>
<path d="M255.075 191.569C242.467 207.638 228.345 222.497 212.967 235.847C197.572 249.186 180.933 261.001 163.34 271.093C145.747 281.184 127.212 289.536 108.102 296.053C88.9757 302.558 69.2862 307.212 49.3609 309.942C29.4356 312.672 9.29142 313.49 -10.7008 312.405C-30.7098 311.308 -50.5551 308.291 -69.8892 303.396C-89.2233 298.5 -108.058 291.744 -126.014 283.266C-144.004 274.764 -161.099 264.553 -177.063 252.872C-160.615 263.862 -143.159 273.27 -124.984 280.897C-106.82 288.54 -87.9532 294.39 -68.7521 298.363C-49.5342 302.348 -29.9822 304.457 -10.467 304.68C9.06501 304.916 28.5889 303.261 47.7151 299.77C66.8582 296.291 85.6323 290.971 103.663 283.95C121.723 276.924 139.051 268.179 155.347 257.858C171.644 247.537 186.902 235.685 200.86 222.496C214.818 209.307 227.448 194.786 238.595 179.226C241.903 174.608 248.255 173.754 252.872 177.063C257.49 180.371 258.644 186.581 255.323 191.215C255.241 191.333 255.17 191.435 255.07 191.541L255.075 191.569Z" fill="url(#paint23_linear_72_5089)"/>
<path d="M342.788 124.139C334.377 145.914 323.908 166.872 311.562 186.602C299.193 206.324 284.956 224.796 269.101 241.704C253.245 258.612 235.778 273.933 217.07 287.441C198.34 300.941 178.376 312.607 157.511 322.248C136.647 331.89 114.904 339.515 92.6919 345.009C70.4571 350.496 47.7597 353.83 24.9933 354.94C2.22686 356.05 -20.6157 354.959 -43.0732 351.693C-65.5754 348.412 -87.6701 342.965 -109.021 335.533C-87.3721 342.047 -65.1511 346.498 -42.7385 348.76C-20.3331 351.044 2.24161 351.133 24.5544 349.06C46.8896 346.993 68.9629 342.765 90.3661 336.488C111.792 330.219 132.577 321.887 152.314 311.681C172.073 301.483 190.814 289.395 208.175 275.697C225.564 261.983 241.581 246.636 255.943 229.911C270.305 213.186 283.02 195.134 293.869 176.055C304.717 156.977 313.669 136.886 320.652 116.155C322.725 110.003 329.381 106.948 335.533 109.021C341.685 111.094 345.021 117.495 342.94 123.67C342.89 123.826 342.846 123.96 342.773 124.11L342.788 124.139Z" fill="url(#paint24_linear_72_5089)"/>
<path d="M270.5 -301.396C289.427 -283.672 306.656 -264.168 321.839 -243.242C337.005 -222.297 350.106 -199.946 360.922 -176.58C371.738 -153.214 380.249 -128.848 386.377 -103.959C392.488 -79.0503 396.195 -53.6342 397.443 -28.1327C398.691 -2.63127 397.497 22.9355 393.913 48.0994C390.312 73.2833 384.3 98.0476 375.969 121.958C367.639 145.868 357.01 168.94 344.301 190.711C331.559 212.522 316.754 233.012 300.214 251.91C315.933 232.323 329.763 211.289 341.42 189.146C353.096 167.02 362.581 143.807 369.731 119.963C376.897 96.099 381.727 71.605 384.169 46.949C386.628 22.2731 386.695 -2.60172 384.397 -27.1768C382.115 -51.7718 377.464 -76.1039 370.58 -99.6843C363.692 -123.301 354.55 -146.184 343.3 -167.936C332.051 -189.688 318.75 -210.296 303.614 -229.408C288.478 -248.52 271.511 -266.1 253.065 -281.919C247.592 -286.614 247.215 -294.741 251.91 -300.214C256.605 -305.688 264.586 -306.46 270.079 -301.748C270.22 -301.631 270.34 -301.53 270.463 -301.392L270.5 -301.396Z" fill="url(#paint25_linear_72_5089)"/>
<path d="M418.746 -136.805C426.936 -109.815 432.558 -82.0706 435.48 -54.1C438.376 -26.1196 438.561 2.06071 436.042 29.9553C433.522 57.8498 428.288 85.432 420.524 112.211C412.733 139 402.402 164.959 389.708 189.662C377.014 214.364 361.983 237.799 344.92 259.555C327.831 281.321 308.698 301.38 287.846 319.373C266.994 337.367 244.433 353.321 220.619 366.918C196.753 380.534 171.662 391.784 145.803 400.591C171.264 390.689 195.733 378.395 218.756 363.876C241.79 349.383 263.351 332.674 283.054 314.101C302.784 295.518 320.656 275.07 336.367 253.172C352.104 231.263 365.697 207.867 376.898 183.466C388.125 159.056 396.978 133.605 403.317 107.647C409.673 81.6521 413.507 55.1242 414.74 28.5144C415.973 1.90469 414.651 -24.7431 410.788 -50.9799C406.924 -77.2166 400.502 -103.006 391.729 -127.94C389.126 -135.34 393.191 -143.201 400.591 -145.803C407.991 -148.406 415.929 -144.793 418.542 -137.366C418.61 -137.179 418.668 -137.019 418.709 -136.822L418.746 -136.805Z" fill="url(#paint26_linear_72_5089)"/>
<path d="M450.995 181.369C438.775 209.993 423.849 237.433 406.479 263.149C389.081 288.854 369.25 312.806 347.335 334.598C325.42 356.39 301.432 375.992 275.875 393.121C250.288 410.24 223.143 424.855 194.892 436.732C166.641 448.609 137.314 457.758 107.46 464.045C77.5759 470.322 47.176 473.708 16.7877 474.128C-13.6007 474.547 -43.9882 472.031 -73.7612 466.634C-103.593 461.216 -132.781 452.928 -160.886 442.031C-132.342 451.72 -102.939 458.684 -73.1787 462.741C-43.4294 466.828 -13.3523 467.997 16.4765 466.272C46.3348 464.558 75.9446 459.95 104.757 452.583C133.599 445.226 161.683 435.091 188.458 422.409C215.263 409.739 240.798 394.504 264.568 377.059C288.378 359.594 310.434 339.889 330.35 318.271C350.266 296.652 368.05 273.19 383.394 248.272C398.737 223.354 411.6 196.999 421.87 169.7C424.918 161.599 433.93 157.837 442.031 160.886C450.132 163.935 454.28 172.62 451.221 180.75C451.145 180.957 451.081 181.133 450.977 181.329L450.995 181.369Z" fill="url(#paint27_linear_72_5089)"/>
<path d="M-40.5854 45.2204C-43.4252 42.5611 -46.0102 39.6348 -48.2882 36.4952C-50.5637 33.3525 -52.5294 29.9991 -54.1522 26.4933C-55.775 22.9875 -57.052 19.3318 -57.9714 15.5975C-58.8882 11.8602 -59.4444 8.04684 -59.6317 4.22066C-59.819 0.394493 -59.6398 -3.44149 -59.102 -7.21701C-58.5617 -10.9955 -57.6597 -14.7111 -56.4098 -18.2985C-55.16 -21.8859 -53.5652 -25.3477 -51.6584 -28.6142C-49.7466 -31.8866 -47.5253 -34.9608 -45.0437 -37.7962C-47.4021 -34.8575 -49.4772 -31.7015 -51.2261 -28.3793C-52.9779 -25.0596 -54.4011 -21.5767 -55.4738 -17.9992C-56.549 -14.4187 -57.2737 -10.7437 -57.6401 -7.04441C-58.009 -3.34209 -58.0191 0.390057 -57.6743 4.07724C-57.332 7.76742 -56.6342 11.4181 -55.6012 14.9561C-54.5677 18.4995 -53.1961 21.9327 -51.5083 25.1963C-49.8204 28.4599 -47.8247 31.5519 -45.5538 34.4195C-43.2829 37.2871 -40.7371 39.9247 -37.9696 42.2981C-37.1484 43.0025 -37.0918 44.2219 -37.7962 45.0431C-38.5007 45.8643 -39.6981 45.9802 -40.5224 45.2733C-40.5434 45.2556 -40.5614 45.2405 -40.5799 45.2199L-40.5854 45.2204Z" fill="url(#paint28_linear_72_5089)"/>
<path d="M-72.1979 23.5868C-73.61 18.9332 -74.5793 14.1498 -75.0831 9.32726C-75.5823 4.50306 -75.6143 -0.355614 -75.1799 -5.16502C-74.7455 -9.97443 -73.8431 -14.73 -72.5044 -19.3471C-71.1611 -23.9659 -69.3799 -28.4416 -67.1913 -32.7006C-65.0026 -36.9596 -62.4112 -41.0002 -59.4693 -44.7512C-56.5228 -48.5039 -53.2242 -51.9624 -49.629 -55.0647C-46.0338 -58.167 -42.1438 -60.9177 -38.0381 -63.262C-33.9232 -65.6097 -29.5972 -67.5492 -25.1388 -69.0677C-29.5285 -67.3605 -33.7473 -65.2409 -37.7169 -62.7376C-41.6882 -60.2388 -45.4056 -57.3579 -48.8028 -54.1556C-52.2045 -50.9516 -55.2859 -47.4263 -57.9946 -43.6506C-60.7079 -39.8733 -63.0515 -35.8395 -64.9826 -31.6325C-66.9184 -27.4238 -68.4447 -23.0356 -69.5377 -18.5601C-70.6337 -14.0783 -71.2946 -9.50448 -71.5072 -4.9166C-71.7197 -0.328715 -71.4919 4.26574 -70.8258 8.78932C-70.1596 13.3129 -69.0523 17.7593 -67.5397 22.0582C-67.091 23.3341 -67.7918 24.6894 -69.0677 25.1382C-70.3436 25.5869 -71.7123 24.964 -72.1627 23.6835C-72.1744 23.6513 -72.1845 23.6236 -72.1916 23.5897L-72.1979 23.5868Z" fill="url(#paint29_linear_72_5089)"/>
<path d="M-18.8065 89.1818C-24.49 87.8573 -30.0426 85.9945 -35.3566 83.6246C-40.6696 81.2488 -45.7381 78.3668 -50.4755 75.0298C-55.213 71.6927 -59.6136 67.9016 -63.6087 63.7401C-67.6027 59.5728 -71.1852 55.0363 -74.2982 50.2064C-77.4111 45.3765 -80.0553 40.2591 -82.1883 34.9511C-84.3203 29.6374 -85.9353 24.1343 -87.0022 18.5367C-88.0691 12.9391 -88.5938 7.24607 -88.5666 1.57272C-88.5375 -4.11222 -87.9575 -9.77169 -86.8605 -15.3161C-87.7201 -9.72983 -88.0487 -4.0738 -87.8289 1.55354C-87.6149 7.17986 -86.8514 12.7717 -85.5618 18.2235C-84.2731 23.681 -82.4583 28.9985 -80.1597 34.0789C-77.8622 39.165 -75.0763 44.0209 -71.863 48.552C-68.6506 53.0889 -65.0061 57.308 -61.0108 61.1292C-57.0107 64.9572 -52.654 68.3884 -48.0137 71.362C-43.3734 74.3356 -38.462 76.8555 -33.3613 78.8774C-28.2606 80.8993 -22.9753 82.4164 -17.6002 83.4238C-16.005 83.723 -15.017 85.2645 -15.3162 86.8597C-15.6154 88.4549 -17.084 89.5035 -18.6849 89.2033C-18.7255 89.1961 -18.7602 89.19 -18.7997 89.1771L-18.8065 89.1818Z" fill="url(#paint30_linear_72_5089)"/>
<path d="M-4.04593 121.457C-11.8154 121.034 -19.5378 119.873 -27.0642 117.992C-34.5906 116.102 -41.9131 113.492 -48.9064 110.207C-55.8997 106.922 -62.5559 102.962 -68.7651 98.4231C-74.9744 93.8759 -80.729 88.7485 -85.9347 83.1272C-91.1405 77.506 -95.7975 71.3986 -99.8272 64.9227C-103.857 58.4391 -107.252 51.5869 -109.949 44.4839C-112.646 37.3808 -114.653 30.0269 -115.931 22.5711C-117.208 15.0995 -117.757 7.53394 -117.6 -0.000305176C-117.436 7.53394 -116.558 15.0368 -114.966 22.3751C-113.383 29.7133 -111.085 36.8791 -108.13 43.7391C-105.174 50.6069 -101.56 57.169 -97.3655 63.3077C-93.1711 69.4543 -88.3886 75.1853 -83.1202 80.3911C-77.8517 85.6047 -72.0893 90.3008 -65.9584 94.3933C-59.8197 98.4936 -53.3047 101.99 -46.5231 104.821C-39.7415 107.651 -32.709 109.822 -25.5432 111.296C-18.3775 112.77 -11.0863 113.539 -3.79505 113.617C-1.63121 113.641 0.0230282 115.436 -0.000491834 117.6C-0.0240118 119.764 -1.70961 121.481 -3.88129 121.457C-3.93617 121.457 -3.98321 121.457 -4.03809 121.449L-4.04593 121.457Z" fill="url(#paint31_linear_72_5089)"/>
<path d="M-119.553 93.715C-125.39 85.9351 -130.484 77.6082 -134.73 68.8894C-138.968 60.1644 -142.351 51.0549 -144.825 41.719C-147.298 32.3832 -148.855 22.8284 -149.498 13.2354C-150.132 3.63603 -149.846 -5.99404 -148.646 -15.4954C-147.447 -24.9969 -145.34 -34.3633 -142.377 -43.4253C-139.406 -52.4935 -135.573 -61.2498 -130.938 -69.5395C-126.304 -77.8291 -120.874 -85.6597 -114.762 -92.8741C-108.634 -100.101 -101.831 -106.705 -94.4902 -112.609C-101.572 -106.398 -108.051 -99.5283 -113.799 -92.1082C-119.554 -84.6955 -124.569 -76.7383 -128.763 -68.3962C-132.965 -60.0478 -136.345 -51.3144 -138.853 -42.3657C-141.368 -33.4106 -143.013 -24.2264 -143.765 -14.9988C-144.524 -5.76491 -144.391 3.5262 -143.384 12.6851C-142.378 21.8578 -140.491 30.9058 -137.752 39.6736C-135.014 48.4414 -131.443 56.9203 -127.096 64.9662C-122.75 73.0121 -117.627 80.6112 -111.844 87.6559C-110.128 89.7468 -110.518 92.7733 -112.609 94.4894C-114.7 96.2055 -117.698 95.971 -119.421 93.8726C-119.465 93.8201 -119.503 93.775 -119.539 93.7162L-119.553 93.715Z" fill="url(#paint32_linear_72_5089)"/>
<path d="M-142.048 158.272C-151.988 148.965 -161.035 138.722 -169.008 127.734C-176.972 116.735 -183.852 104.998 -189.532 92.7273C-195.212 80.457 -199.681 67.662 -202.899 54.592C-206.108 41.5114 -208.055 28.1646 -208.71 14.773C-209.366 1.38143 -208.739 -12.0445 -206.857 -25.2588C-204.965 -38.4837 -201.808 -51.4882 -197.434 -64.0441C-193.059 -76.6 -187.478 -88.7162 -180.804 -100.149C-174.112 -111.603 -166.338 -122.362 -157.652 -132.286C-165.907 -122.001 -173.17 -110.955 -179.291 -99.3269C-185.422 -87.7079 -190.403 -75.5177 -194.158 -62.9966C-197.921 -50.4649 -200.457 -37.6024 -201.74 -24.6547C-203.031 -11.6966 -203.066 1.36591 -201.859 14.271C-200.661 27.1867 -198.219 39.9642 -194.604 52.347C-190.986 64.7491 -186.186 76.7652 -180.278 88.1879C-174.371 99.6105 -167.386 110.432 -159.438 120.469C-151.489 130.506 -142.579 139.737 -132.893 148.044C-130.019 150.51 -129.821 154.777 -132.286 157.652C-134.752 160.526 -138.943 160.932 -141.828 158.457C-141.901 158.395 -141.964 158.342 -142.029 158.27L-142.048 158.272Z" fill="url(#paint33_linear_72_5089)"/>
<path d="M35.7101 251.156C19.5843 253.102 3.28813 253.516 -12.8666 252.376C-29.0242 251.22 -45.0241 248.508 -60.5916 244.289C-76.159 240.071 -91.2779 234.345 -105.688 227.264C-120.102 220.166 -133.79 211.712 -146.53 202.042C-159.269 192.373 -171.057 181.506 -181.689 169.654C-192.323 157.785 -201.786 144.929 -209.905 131.305C-218.024 117.68 -224.816 103.29 -230.146 88.4251C-235.481 73.5285 -239.352 58.1742 -241.761 42.6286C-238.691 58.0577 -234.166 73.1637 -228.235 87.6726C-222.319 102.184 -214.999 116.083 -206.436 129.114C-197.87 142.162 -188.061 154.342 -177.213 165.441C-166.363 176.557 -154.454 186.605 -141.736 195.397C-129.015 204.205 -115.466 211.771 -101.379 217.962C-87.2728 224.166 -72.6118 228.993 -57.6443 232.353C-42.6769 235.713 -27.4324 237.628 -12.1668 238.061C3.09872 238.493 18.3664 237.43 33.3839 234.948C37.8409 234.212 41.8924 237.303 42.6284 241.76C43.3645 246.217 40.5216 250.358 36.0486 251.097C35.9358 251.116 35.839 251.134 35.7234 251.137L35.7101 251.156Z" fill="url(#paint34_linear_72_5089)"/>
<path d="M-259.912 84.9132C-264.996 68.1604 -268.485 50.94 -270.299 33.5789C-272.096 16.2117 -272.211 -1.27948 -270.647 -18.5934C-269.083 -35.9072 -265.835 -53.0272 -261.015 -69.6488C-256.179 -86.2764 -249.767 -102.389 -241.888 -117.721C-234.009 -133.054 -224.68 -147.6 -214.089 -161.104C-203.482 -174.613 -191.606 -187.064 -178.664 -198.232C-165.721 -209.4 -151.717 -219.303 -136.937 -227.743C-122.123 -236.194 -106.549 -243.177 -90.499 -248.643C-106.302 -242.497 -121.49 -234.867 -135.78 -225.855C-150.077 -216.859 -163.46 -206.488 -175.689 -194.96C-187.936 -183.425 -199.028 -170.734 -208.78 -157.142C-218.548 -143.543 -226.985 -129.021 -233.937 -113.876C-240.906 -98.7249 -246.4 -82.9275 -250.335 -66.8156C-254.281 -50.681 -256.66 -34.2154 -257.425 -17.699C-258.19 -1.18264 -257.37 15.3574 -254.972 31.6423C-252.574 47.9271 -248.588 63.9342 -243.142 79.4104C-241.527 84.0035 -244.05 88.8827 -248.643 90.4982C-253.236 92.1136 -258.164 89.871 -259.785 85.2613C-259.827 85.1453 -259.863 85.0458 -259.889 84.9238L-259.912 84.9132Z" fill="url(#paint35_linear_72_5089)"/>
<path d="M-267.258 174.172C-278.046 156.828 -287.178 138.475 -294.464 119.459C-301.733 100.43 -307.144 80.7536 -310.61 60.7702C-314.076 40.7868 -315.584 20.5131 -315.173 0.326816C-314.744 -19.8713 -312.383 -39.9651 -308.133 -59.6225C-303.884 -79.28 -297.763 -98.4892 -289.906 -116.905C-282.032 -135.332 -272.409 -152.948 -261.196 -169.442C-249.983 -185.936 -237.192 -201.324 -223.084 -215.297C-208.942 -229.295 -193.5 -241.866 -177.064 -252.873C-193.016 -241.175 -207.828 -227.99 -221.211 -213.519C-234.605 -199.065 -246.555 -183.336 -256.856 -166.652C-267.173 -149.956 -275.842 -132.305 -282.727 -114.043C-289.628 -95.7692 -294.751 -76.8568 -298.012 -57.6901C-301.291 -38.5117 -302.712 -19.0502 -302.282 0.294674C-301.856 19.6682 -299.565 38.942 -295.44 57.7856C-291.315 76.6292 -285.397 95.0207 -277.777 112.648C-270.157 130.276 -260.831 147.111 -250.022 162.907C-246.815 167.595 -248.185 173.855 -252.873 177.063C-257.561 180.27 -263.791 179.231 -267.01 174.526C-267.093 174.408 -267.164 174.306 -267.229 174.177L-267.258 174.172Z" fill="url(#paint36_linear_72_5089)"/>
<path d="M-233.894 279.657C-251.479 264.306 -267.592 247.3 -281.909 228.95C-296.212 210.582 -308.701 190.886 -319.166 170.204C-329.631 149.522 -338.054 127.868 -344.349 105.668C-350.629 83.4503 -354.763 60.7004 -356.687 37.7966C-358.611 14.8928 -358.34 -8.14661 -355.906 -30.8986C-353.457 -53.6691 -348.827 -76.1378 -342.083 -97.9109C-335.34 -119.684 -326.502 -140.776 -315.752 -160.762C-304.973 -180.785 -292.297 -199.684 -278.011 -217.206C-291.537 -199.09 -303.319 -179.732 -313.11 -159.444C-322.92 -139.171 -330.725 -117.988 -336.408 -96.3122C-342.105 -74.6173 -345.681 -52.4289 -347.103 -30.1698C-348.54 -7.8921 -347.82 14.4893 -344.98 36.5267C-342.154 58.5826 -337.206 80.3275 -330.271 101.326C-323.332 122.357 -314.388 142.657 -303.584 161.873C-292.779 181.089 -280.165 199.212 -265.947 215.931C-251.73 232.651 -235.912 247.934 -218.82 261.586C-213.748 265.638 -213.154 272.938 -217.206 278.01C-221.258 283.082 -228.414 284.027 -233.505 279.961C-233.634 279.859 -233.745 279.772 -233.861 279.653L-233.894 279.657Z" fill="url(#paint37_linear_72_5089)"/>
<path d="M190.702 357.27C167.574 368.994 143.354 378.512 118.497 385.623C93.6274 392.711 68.1442 397.377 42.4878 399.549C16.8314 401.722 -8.97546 401.386 -34.4593 398.632C-59.9563 395.854 -85.1076 390.645 -109.498 383.096C-133.888 375.547 -157.505 365.681 -179.925 353.706C-202.359 341.708 -223.573 327.589 -243.192 311.583C-262.811 295.578 -280.857 277.698 -296.969 258.31C-313.106 238.876 -327.296 217.956 -339.398 195.951C-326.368 217.42 -311.333 237.611 -294.512 256.137C-277.714 274.677 -259.145 291.53 -239.184 306.403C-219.21 321.299 -197.845 334.215 -175.512 344.943C-153.165 355.693 -129.813 364.264 -105.934 370.51C-82.0421 376.778 -57.5866 380.729 -33.0737 382.325C-8.52496 383.93 16.1039 383.166 40.3917 380.034C64.6795 376.902 88.594 371.452 111.73 363.766C134.867 356.079 157.19 346.148 178.363 334.225C184.647 330.688 192.413 333.113 195.951 339.397C199.488 345.681 197.484 353.445 191.178 356.995C191.019 357.087 190.883 357.165 190.712 357.234L190.702 357.27Z" fill="url(#paint38_linear_72_5089)"/>
<path d="M-14.6655 440.282C-42.8297 438.748 -70.8234 434.542 -98.1066 427.721C-125.39 420.871 -151.934 411.408 -177.285 399.5C-202.635 387.592 -226.764 373.24 -249.273 356.784C-271.781 340.301 -292.642 321.714 -311.512 301.337C-330.383 280.96 -347.265 258.821 -361.873 235.346C-376.481 211.842 -388.786 187.003 -398.563 161.255C-408.339 135.506 -415.615 108.848 -420.247 81.8209C-424.88 54.7366 -426.869 27.3113 -426.301 -0.000305176C-425.704 27.3113 -422.521 54.5093 -416.752 81.1104C-411.011 107.711 -402.684 133.687 -391.969 158.555C-381.255 183.451 -368.154 207.238 -352.949 229.491C-337.744 251.772 -320.408 272.548 -301.31 291.418C-282.211 310.318 -261.323 327.341 -239.098 342.177C-216.845 357.04 -193.228 369.715 -168.645 379.975C-144.062 390.235 -118.569 398.107 -92.5931 403.45C-66.6173 408.793 -40.1867 411.578 -13.7561 411.862C-5.91214 411.948 0.0844842 418.456 -0.000775819 426.3C-0.0860358 434.144 -6.19634 440.368 -14.0687 440.282C-14.2676 440.282 -14.4381 440.282 -14.6371 440.254L-14.6655 440.282Z" fill="url(#paint39_linear_72_5089)"/>
<path d="M-324.681 361.765C-347.4 340.491 -368.079 317.08 -386.304 291.963C-404.508 266.822 -420.233 239.995 -433.215 211.949C-446.198 183.902 -456.414 154.656 -463.769 124.782C-471.104 94.8837 -475.553 64.3767 -477.052 33.7673C-478.55 3.15796 -477.117 -27.5299 -472.814 -57.7341C-468.492 -87.9624 -461.276 -117.687 -451.277 -146.386C-441.278 -175.085 -428.519 -202.78 -413.265 -228.911C-397.971 -255.091 -380.2 -279.684 -360.348 -302.368C-379.215 -278.858 -395.815 -253.61 -409.806 -227.032C-423.821 -200.475 -435.207 -172.611 -443.788 -143.992C-452.39 -115.348 -458.187 -85.9479 -461.118 -56.3533C-464.07 -26.7347 -464.151 3.12247 -461.392 32.6199C-458.654 62.1414 -453.071 91.3472 -444.807 119.651C-436.54 147.998 -425.567 175.464 -412.064 201.573C-398.561 227.682 -382.596 252.418 -364.428 275.358C-346.261 298.299 -325.895 319.4 -303.755 338.387C-297.185 344.022 -296.732 353.777 -302.368 360.347C-308.003 366.917 -317.583 367.844 -324.177 362.188C-324.345 362.047 -324.489 361.926 -324.637 361.761L-324.681 361.765Z" fill="url(#paint40_linear_72_5089)"/>
<path d="M19.2698 -30.949C21.2248 -29.6736 23.0571 -28.2137 24.7303 -26.5959C26.4023 -24.9761 27.9131 -23.1994 29.2373 -21.297C30.5614 -19.3945 31.6969 -17.3675 32.6292 -15.2567C33.5603 -13.1439 34.2863 -10.9486 34.7956 -8.7073C35.3049 -6.46598 35.5987 -4.1807 35.6743 -1.89376C35.7487 0.395213 35.6029 2.68466 35.2381 4.93463C34.8734 7.1846 34.2917 9.39626 33.5053 11.525C32.7166 13.6579 31.7244 15.7058 30.5535 17.6397C31.6409 15.6576 32.5382 13.5766 33.2254 11.4313C33.9147 9.28722 34.3927 7.08093 34.6538 4.8553C34.9161 2.62763 34.9614 0.38062 34.7925 -1.84343C34.6247 -4.06951 34.2419 -6.27584 33.654 -8.4186C33.0672 -10.5634 32.2745 -12.6479 31.2955 -14.6308C30.3157 -16.6169 29.1475 -18.5026 27.8102 -20.2551C26.4728 -22.0077 24.9714 -23.6268 23.3308 -25.0846C21.6902 -26.5424 19.9111 -27.8357 18.0286 -28.9497C17.4699 -29.2804 17.3094 -29.995 17.6401 -30.5536C17.9708 -31.1123 18.6663 -31.3055 19.227 -30.9737C19.2412 -30.9654 19.2535 -30.9584 19.2665 -30.9481L19.2698 -30.949Z" fill="url(#paint41_linear_72_5089)"/>
<path d="M-18.8697 -57.7583C-15.1469 -58.8881 -11.3201 -59.6635 -7.46212 -60.0665C-3.60275 -60.4659 0.284184 -60.4915 4.13171 -60.144C7.97924 -59.7965 11.7837 -59.0745 15.4774 -58.0036C19.1724 -56.9289 22.753 -55.504 26.1602 -53.7531C29.5674 -52.0022 32.7998 -49.929 35.8006 -47.5755C38.8028 -45.2183 41.5696 -42.5794 44.0514 -39.7032C46.5333 -36.8271 48.7339 -33.7151 50.6093 -30.4306C52.4874 -27.1386 54.0391 -23.6778 55.2538 -20.1111C53.8881 -23.6228 52.1924 -26.9979 50.1897 -30.1736C48.1907 -33.3506 45.886 -36.3246 43.3242 -39.0422C40.761 -41.7636 37.9407 -44.2287 34.9202 -46.3957C31.8983 -48.5663 28.6713 -50.4412 25.3057 -51.9862C21.9387 -53.5348 18.4282 -54.7558 14.8478 -55.6302C11.2623 -56.507 7.60328 -57.0357 3.93297 -57.2058C0.262663 -57.3758 -3.4129 -57.1936 -7.03176 -56.6606C-10.6506 -56.1277 -14.2078 -55.2419 -17.6469 -54.0318C-18.6676 -53.6729 -19.7519 -54.2335 -20.1108 -55.2542C-20.4698 -56.2749 -19.9715 -57.3699 -18.9471 -57.7302C-18.9213 -57.7396 -18.8992 -57.7476 -18.8721 -57.7533L-18.8697 -57.7583Z" fill="url(#paint42_linear_72_5089)"/>
<path d="M15.6717 -74.3187C20.4079 -73.2149 25.0352 -71.6626 29.4635 -69.6876C33.8909 -67.7078 38.1147 -65.3062 42.0626 -62.5253C46.0104 -59.7444 49.6776 -56.5851 53.0068 -53.1172C56.3352 -49.6445 59.3206 -45.8641 61.9147 -41.8392C64.5088 -37.8142 66.7124 -33.5497 68.4899 -29.1265C70.2665 -24.6984 71.6124 -20.1124 72.5015 -15.4477C73.3905 -10.7831 73.8278 -6.03889 73.8051 -1.31109C73.7808 3.42635 73.2975 8.14258 72.3833 12.7629C73.0997 8.10769 73.3735 3.39434 73.1903 -1.29511C73.012 -5.98371 72.3758 -10.6436 71.3011 -15.1867C70.2272 -19.7347 68.7148 -24.1659 66.7994 -28.3996C64.8848 -32.638 62.5632 -36.6845 59.8854 -40.4605C57.2085 -44.2413 54.1714 -47.7572 50.8419 -50.9415C47.5085 -54.1315 43.878 -56.9908 40.011 -59.4688C36.1441 -61.9469 32.0513 -64.0468 27.8007 -65.7317C23.5501 -67.4166 19.1457 -68.6808 14.6664 -69.5204C13.3371 -69.7697 12.5138 -71.0543 12.7631 -72.3836C13.0124 -73.7129 14.2363 -74.5867 15.5704 -74.3366C15.6042 -74.3306 15.6331 -74.3255 15.6661 -74.3147L15.6717 -74.3187Z" fill="url(#paint43_linear_72_5089)"/>
<path d="M-67.831 -60.8779C-63.8422 -65.1376 -59.4527 -69.015 -54.7433 -72.4321C-50.0293 -75.8453 -44.9992 -78.7938 -39.7405 -81.228C-34.4818 -83.6622 -28.9982 -85.5777 -23.3968 -86.9568C-17.7908 -88.3321 -12.0708 -89.1664 -6.33151 -89.4473C-0.592247 -89.7282 5.16172 -89.4595 10.825 -88.6528C16.4928 -87.8423 22.0662 -86.4893 27.4473 -84.6145C32.8284 -82.7397 38.021 -80.3475 42.9207 -77.4874C47.8294 -74.6196 52.4407 -71.2876 56.6938 -67.5653C52.2857 -71.1029 47.5518 -74.2155 42.5685 -76.8388C37.5889 -79.4667 32.3645 -81.6014 26.9983 -83.2104C21.6276 -84.8232 16.1151 -85.9102 10.5661 -86.4598C5.01263 -87.0132 -0.585597 -87.0284 -6.11636 -86.5112C-11.6516 -85.9977 -17.1277 -84.951 -22.4346 -83.4015C-27.7498 -81.8514 -32.8996 -79.7939 -37.795 -77.2621C-42.6904 -74.7303 -47.3284 -71.7368 -51.6298 -68.3304C-55.9311 -64.924 -59.8876 -61.1054 -63.4476 -56.9542C-64.5043 -55.7223 -66.3333 -55.6374 -67.5652 -56.6941C-68.797 -57.7508 -68.9709 -59.5469 -67.9104 -60.7833C-67.884 -60.8148 -67.8613 -60.8419 -67.8303 -60.8696L-67.831 -60.8779Z" fill="url(#paint44_linear_72_5089)"/>
<path d="M-103.162 -64.2323C-98.9111 -70.7492 -94.045 -76.8568 -88.6523 -82.4341C-83.2528 -88.0074 -77.3305 -93.0436 -70.989 -97.4574C-64.6475 -101.871 -57.8907 -105.656 -50.8549 -108.764C-43.8122 -111.868 -36.4945 -114.288 -29.0235 -115.985C-21.5524 -117.683 -13.9348 -118.662 -6.3117 -118.914C1.31821 -119.162 8.94971 -118.676 16.4496 -117.46C23.9495 -116.244 31.3217 -114.306 38.4176 -111.684C45.5271 -109.055 52.3535 -105.748 58.7999 -101.845C52.1928 -105.469 45.256 -108.46 38.1052 -110.751C30.9582 -113.049 23.604 -114.642 16.1852 -115.513C8.75961 -116.387 1.26957 -116.538 -6.14391 -115.975C-13.5642 -115.416 -20.9186 -114.139 -28.0612 -112.18C-35.2105 -110.224 -42.1587 -107.582 -48.7684 -104.318C-55.3887 -101.052 -61.6744 -97.1583 -67.5162 -92.7004C-73.3581 -88.2424 -78.7551 -83.238 -83.6144 -77.7692C-88.4737 -72.3004 -92.7847 -66.3702 -96.4982 -60.0951C-97.6005 -58.2329 -99.9825 -57.6979 -101.845 -58.8002C-103.707 -59.9025 -104.351 -62.2208 -103.245 -64.0897C-103.217 -64.1373 -103.194 -64.178 -103.16 -64.2216L-103.162 -64.2323Z" fill="url(#paint45_linear_72_5089)"/>
<path d="M-21.3834 -150.393C-11.7273 -151.559 -1.96909 -151.807 7.7044 -151.124C17.3796 -150.432 26.9604 -148.807 36.2822 -146.281C45.6041 -143.756 54.6573 -140.327 63.2862 -136.086C71.9169 -131.837 80.1138 -126.774 87.7423 -120.984C95.3708 -115.194 102.429 -108.687 108.796 -101.59C115.164 -94.4827 120.83 -86.7845 125.692 -78.626C130.553 -70.4675 134.62 -61.8504 137.812 -52.9496C141.007 -44.0295 143.324 -34.8353 144.767 -25.5265C142.929 -34.7655 140.219 -43.811 136.667 -52.499C133.125 -61.1887 128.742 -69.5112 123.614 -77.3144C118.485 -85.1272 112.611 -92.4207 106.116 -99.067C99.6181 -105.723 92.487 -111.74 84.8715 -117.005C77.2543 -122.279 69.1413 -126.809 60.7058 -130.516C52.259 -134.232 43.48 -137.122 34.5174 -139.134C25.5549 -141.146 16.4264 -142.293 7.28538 -142.552C-1.85567 -142.811 -10.998 -142.174 -19.9905 -140.688C-22.6593 -140.247 -25.0854 -142.098 -25.5262 -144.767C-25.9669 -147.436 -24.2646 -149.915 -21.5861 -150.358C-21.5186 -150.37 -21.4607 -150.38 -21.3914 -150.382L-21.3834 -150.393Z" fill="url(#paint46_linear_72_5089)"/>
<path d="M96.3483 -154.744C106.124 -148.367 115.285 -141.068 123.651 -132.979C132.011 -124.879 139.565 -115.996 146.186 -106.484C152.807 -96.9715 158.484 -86.8363 163.146 -76.2825C167.801 -65.7185 171.431 -54.742 173.978 -43.5354C176.524 -32.3288 177.993 -20.9024 178.371 -9.46774C178.743 1.97714 178.014 13.4244 176.19 24.6742C174.366 35.9241 171.458 46.9824 167.526 57.6262C163.583 68.2905 158.621 78.5301 152.767 88.1997C158.204 78.289 162.69 67.8839 166.127 57.1576C169.573 46.4372 171.963 35.4057 173.269 24.2776C174.58 13.1392 174.807 1.90417 173.962 -9.21606C173.123 -20.3465 171.209 -31.3781 168.269 -42.092C165.336 -52.816 161.372 -63.2383 156.477 -73.1527C151.578 -83.0832 145.737 -92.5118 139.05 -101.275C132.363 -110.037 124.857 -118.133 116.654 -125.422C108.45 -132.711 99.5551 -139.177 90.1424 -144.748C87.3491 -146.401 86.5467 -149.974 88.2001 -152.767C89.8536 -155.56 93.3309 -156.527 96.1344 -154.867C96.2057 -154.826 96.2668 -154.791 96.3322 -154.74L96.3483 -154.744Z" fill="url(#paint47_linear_72_5089)"/>
<path d="M-66.0437 -202.153C-53.0137 -206.108 -39.62 -208.822 -26.1169 -210.232C-12.6092 -211.63 0.995097 -211.719 14.4614 -210.503C27.9278 -209.287 41.2433 -206.76 54.1712 -203.012C67.1038 -199.251 79.6358 -194.263 91.561 -188.135C103.486 -182.007 114.8 -174.751 125.303 -166.513C135.81 -158.263 145.494 -149.027 154.18 -138.961C162.867 -128.894 170.569 -118.002 177.133 -106.506C183.706 -94.9844 189.137 -82.8716 193.389 -70.388C188.609 -82.6792 182.674 -94.4918 175.665 -105.607C168.668 -116.726 160.602 -127.135 151.635 -136.647C142.664 -146.172 132.793 -154.8 122.221 -162.384C111.645 -169.981 100.35 -176.543 88.5703 -181.951C76.7859 -187.371 64.4991 -191.645 51.9676 -194.705C39.4185 -197.774 26.6119 -199.624 13.7659 -200.219C0.919782 -200.815 -11.9447 -200.177 -24.6107 -198.312C-37.2767 -196.446 -49.7267 -193.346 -61.7637 -189.111C-65.3361 -187.854 -69.1311 -189.817 -70.3875 -193.389C-71.644 -196.961 -69.8997 -200.794 -66.3144 -202.055C-66.2241 -202.088 -66.1468 -202.116 -66.0519 -202.136L-66.0437 -202.153Z" fill="url(#paint48_linear_72_5089)"/>
<path d="M-235.363 -94.6523C-228.986 -109.591 -221.196 -123.911 -212.131 -137.331C-203.052 -150.746 -192.702 -163.246 -181.265 -174.619C-169.829 -185.991 -157.31 -196.221 -143.972 -205.161C-130.619 -214.094 -116.453 -221.722 -101.709 -227.92C-86.9659 -234.118 -71.6608 -238.893 -56.0806 -242.174C-40.485 -245.45 -24.6201 -247.217 -8.76114 -247.436C7.09778 -247.655 22.9563 -246.341 38.4941 -243.525C54.0627 -240.697 69.2952 -236.372 83.9625 -230.685C69.0657 -235.742 53.7211 -239.376 38.1901 -241.493C22.6646 -243.626 6.96813 -244.236 -8.59876 -243.336C-24.181 -242.442 -39.6337 -240.037 -54.6701 -236.192C-69.7219 -232.353 -84.3785 -227.063 -98.3516 -220.445C-112.34 -213.833 -125.666 -205.882 -138.071 -196.778C-150.498 -187.664 -162.008 -177.38 -172.402 -166.098C-182.795 -154.816 -192.076 -142.571 -200.084 -129.567C-208.091 -116.563 -214.804 -102.809 -220.163 -88.5627C-221.754 -84.3349 -226.457 -82.3717 -230.685 -83.9628C-234.913 -85.5538 -237.077 -90.0862 -235.481 -94.3294C-235.442 -94.437 -235.408 -94.5293 -235.353 -94.6313L-235.363 -94.6523Z" fill="url(#paint49_linear_72_5089)"/>
<path d="M56.4185 -267.547C73.4687 -263.573 90.1268 -257.985 106.069 -250.875C122.008 -243.748 137.213 -235.102 151.425 -225.091C165.638 -215.079 178.84 -203.706 190.825 -191.222C202.807 -178.72 213.555 -165.11 222.893 -150.62C232.232 -136.131 240.165 -120.778 246.564 -104.855C252.96 -88.9136 257.805 -72.4041 261.005 -55.6114C264.206 -38.8186 265.78 -21.7395 265.699 -4.71942C265.611 12.3354 263.871 29.3138 260.58 45.947C263.159 29.1882 264.145 12.2201 263.485 -4.66189C262.843 -21.5408 260.553 -38.3164 256.684 -54.6717C252.818 -71.0444 247.374 -86.9969 240.478 -102.238C233.586 -117.496 225.228 -132.064 215.588 -145.657C205.951 -159.268 195.017 -171.925 183.031 -183.389C171.031 -194.873 157.961 -205.166 144.04 -214.087C130.119 -223.008 115.385 -230.568 100.083 -236.634C84.7805 -242.699 68.9247 -247.25 52.7994 -250.273C48.0139 -251.17 45.0499 -255.795 45.9474 -260.58C46.845 -265.366 51.2508 -268.512 56.0536 -267.611C56.1753 -267.59 56.2795 -267.571 56.398 -267.533L56.4185 -267.547Z" fill="url(#paint50_linear_72_5089)"/>
<path d="M-17.2084 -318.538C3.20565 -319.208 23.6653 -317.941 43.7774 -314.742C63.8913 -311.523 83.6371 -306.372 102.676 -299.381C121.715 -292.391 140.027 -283.561 157.303 -273.111C174.581 -262.64 190.802 -250.549 205.701 -237.04C220.6 -223.531 234.175 -208.626 246.195 -192.613C258.216 -176.58 268.661 -159.439 277.339 -141.481C286.016 -123.524 292.947 -104.752 297.995 -85.5475C303.046 -66.3018 306.212 -46.6432 307.526 -26.9052C305.371 -46.5696 301.359 -65.9889 295.518 -84.8143C289.698 -103.642 282.051 -121.855 272.753 -139.117C263.452 -156.401 252.5 -172.734 240.127 -187.827C227.752 -202.941 213.935 -216.833 198.967 -229.241C183.997 -241.669 167.854 -252.631 150.885 -261.931C133.894 -271.249 116.057 -278.902 97.6759 -284.751C79.2945 -290.601 60.4076 -294.671 41.3318 -296.886C22.2561 -299.101 3.01374 -299.442 -16.0708 -297.979C-21.7346 -297.545 -26.4712 -301.862 -26.9048 -307.526C-27.3383 -313.189 -23.3233 -318.065 -17.6389 -318.5C-17.4954 -318.513 -17.3724 -318.524 -17.2271 -318.516L-17.2084 -318.538Z" fill="url(#paint51_linear_72_5089)"/>
<path d="M-125.243 -342.386C-103.157 -349.94 -80.3723 -355.391 -57.3227 -358.616C-34.2642 -361.818 -10.9622 -362.786 12.1817 -361.508C35.3256 -360.23 58.2894 -356.697 80.6623 -351.049C103.044 -345.379 124.813 -337.584 145.61 -327.798C166.408 -318.013 186.225 -306.258 204.711 -292.774C223.207 -279.268 240.35 -264.024 255.834 -247.297C271.319 -230.571 285.166 -212.371 297.099 -193.068C309.051 -173.722 319.079 -153.295 327.11 -132.161C318.185 -152.933 307.311 -172.816 294.637 -191.439C281.985 -210.071 267.543 -227.422 251.612 -243.181C235.672 -258.963 218.245 -273.154 199.679 -285.515C181.104 -297.899 161.361 -308.465 140.856 -317.024C120.343 -325.606 99.0365 -332.192 77.384 -336.686C55.7008 -341.192 33.6493 -343.596 11.6052 -343.848C-10.4388 -344.099 -32.4406 -342.236 -54.0289 -338.283C-75.6173 -334.33 -96.7616 -328.273 -117.131 -320.297C-123.176 -317.931 -129.795 -321.065 -132.161 -327.111C-134.527 -333.156 -131.768 -339.826 -125.701 -342.201C-125.549 -342.263 -125.418 -342.316 -125.256 -342.356L-125.243 -342.386Z" fill="url(#paint52_linear_72_5089)"/>
<path d="M-404.756 -13.4818C-403.346 -39.3734 -399.479 -65.1083 -393.208 -90.1901C-386.912 -115.272 -378.212 -139.674 -367.264 -162.979C-356.317 -186.284 -343.123 -208.466 -327.996 -229.159C-312.842 -249.851 -295.755 -269.028 -277.022 -286.376C-258.29 -303.724 -237.937 -319.244 -216.356 -332.673C-194.749 -346.102 -171.914 -357.415 -148.243 -366.403C-124.573 -375.39 -100.066 -382.079 -75.219 -386.337C-50.3202 -390.596 -25.1078 -392.425 6.10352e-05 -391.902C-25.1078 -391.354 -50.1111 -388.428 -74.5658 -383.124C-99.0205 -377.846 -122.9 -370.191 -145.761 -360.341C-168.648 -350.491 -190.517 -338.447 -210.974 -324.469C-231.457 -310.491 -250.556 -294.554 -267.904 -276.997C-285.279 -259.44 -300.928 -240.236 -314.567 -219.805C-328.231 -199.348 -339.884 -177.636 -349.315 -155.037C-358.747 -132.437 -365.984 -109.001 -370.896 -85.1215C-375.808 -61.2416 -378.368 -36.9436 -378.63 -12.6457C-378.708 -5.43471 -384.691 0.0780433 -391.902 -0.000337158C-399.113 -0.0787176 -404.835 -5.69598 -404.756 -12.9331C-404.756 -13.116 -404.756 -13.2728 -404.73 -13.4556L-404.756 -13.4818Z" fill="url(#paint53_linear_72_5089)"/>
<path d="M-373.963 -232.842C-358.552 -256.465 -340.913 -278.605 -321.364 -298.823C-301.791 -319.026 -280.323 -337.282 -257.335 -353.283C-234.347 -369.283 -209.853 -383.003 -184.348 -394.268C-158.819 -405.52 -132.292 -414.292 -105.21 -420.446C-78.1271 -426.6 -50.5133 -430.15 -22.8794 -431.063C4.77899 -431.963 32.4432 -430.2 59.6303 -425.793C86.8174 -421.385 113.542 -414.357 139.264 -404.855C165.036 -395.325 189.782 -383.335 213.15 -369.187C189.199 -382.326 164.054 -393.168 138.132 -401.472C112.224 -409.801 85.5648 -415.578 58.6718 -418.733C31.7541 -421.902 4.60267 -422.449 -22.2712 -420.408C-49.1697 -418.381 -75.8295 -413.755 -101.721 -406.651C-127.638 -399.561 -152.825 -389.982 -176.785 -378.153C-200.784 -366.313 -223.569 -352.198 -244.746 -336.038C-265.923 -319.878 -285.487 -301.737 -303.102 -281.913C-320.717 -262.088 -336.344 -240.591 -349.806 -217.844C-353.801 -211.094 -362.436 -209.154 -369.186 -213.15C-375.937 -217.146 -378.272 -225.55 -374.262 -232.325C-374.162 -232.497 -374.077 -232.645 -373.953 -232.803L-373.963 -232.842Z" fill="url(#paint54_linear_72_5089)"/>
<path d="M-150.957 -462.065C-121.175 -471.103 -90.5606 -477.306 -59.6964 -480.53C-28.8215 -483.725 2.27396 -483.93 33.0542 -481.15C63.8344 -478.37 94.2699 -472.594 123.819 -464.027C153.379 -455.429 182.024 -444.03 209.282 -430.022C236.539 -416.015 262.399 -399.43 286.406 -380.602C310.423 -361.744 332.557 -340.633 352.412 -317.624C372.267 -294.615 389.871 -269.719 404.875 -243.442C419.9 -217.107 432.313 -189.42 442.031 -160.886C431.105 -188.981 417.54 -215.981 401.518 -241.386C385.526 -266.803 367.089 -290.594 346.594 -312.336C326.089 -334.107 303.526 -353.828 279.362 -371.163C255.187 -388.529 229.371 -403.528 202.446 -415.887C175.51 -428.276 147.426 -438.045 118.783 -445.04C90.0989 -452.054 60.8267 -456.284 31.4643 -457.644C2.10179 -459.005 -27.3027 -457.546 -56.2536 -453.283C-85.2045 -449.02 -113.662 -441.933 -141.175 -432.253C-149.34 -429.381 -158.014 -433.866 -160.886 -442.032C-163.758 -450.197 -159.771 -458.957 -151.576 -461.839C-151.37 -461.914 -151.193 -461.979 -150.976 -462.024L-150.957 -462.065Z" fill="url(#paint55_linear_72_5089)"/>
<path d="M-1.52588e-05 588C324.743 588 588 324.743 588 -9.15527e-05C588 -324.743 324.743 -588 -1.52588e-05 -588C-324.743 -588 -588 -324.743 -588 -9.15527e-05C-588 324.743 -324.743 588 -1.52588e-05 588Z" fill="url(#paint56_radial_72_5089)" fill-opacity="0.1"/>
</g>
<defs>
<radialGradient id="paint0_radial_72_5089" cx="0" cy="0" r="1" gradientUnits="userSpaceOnUse" gradientTransform="scale(588)">
<stop stop-color="#FFBB33"/>
<stop offset="1" stop-color="#EE5522"/>
</radialGradient>
<radialGradient id="paint1_radial_72_5089" cx="0" cy="0" r="1" gradientUnits="userSpaceOnUse" gradientTransform="scale(392)">
<stop stop-color="#FFBB33"/>
<stop offset="1" stop-color="#EE5522"/>
</radialGradient>
<radialGradient id="paint2_radial_72_5089" cx="0" cy="0" r="1" gradientUnits="userSpaceOnUse" gradientTransform="scale(352.8)">
<stop stop-color="#FFBB33"/>
<stop offset="1" stop-color="#EE5522"/>
</radialGradient>
<radialGradient id="paint3_radial_72_5089" cx="0" cy="0" r="1" gradientUnits="userSpaceOnUse" gradientTransform="scale(333.2)">
<stop stop-color="#FFBB33"/>
<stop offset="1" stop-color="#EE5522"/>
</radialGradient>
<radialGradient id="paint4_radial_72_5089" cx="0" cy="0" r="1" gradientUnits="userSpaceOnUse" gradientTransform="scale(323.596)">
<stop stop-color="#FFBB33"/>
<stop offset="1" stop-color="#EE5522"/>
</radialGradient>
<radialGradient id="paint5_radial_72_5089" cx="0" cy="0" r="1" gradientUnits="userSpaceOnUse" gradientTransform="scale(284.2)">
<stop stop-color="#FFBB33"/>
<stop offset="1" stop-color="#EE5522"/>
</radialGradient>
<radialGradient id="paint6_radial_72_5089" cx="0" cy="0" r="1" gradientUnits="userSpaceOnUse" gradientTransform="scale(245)">
<stop stop-color="#FFBB33"/>
<stop offset="1" stop-color="#EE5522"/>
</radialGradient>
<radialGradient id="paint7_radial_72_5089" cx="0" cy="0" r="1" gradientUnits="userSpaceOnUse" gradientTransform="scale(230.3)">
<stop stop-color="#FFBB33"/>
<stop offset="1" stop-color="#EE5522"/>
</radialGradient>
<radialGradient id="paint8_radial_72_5089" cx="0" cy="0" r="1" gradientUnits="userSpaceOnUse" gradientTransform="scale(176.4)">
<stop stop-color="#FFBB33"/>
<stop offset="1" stop-color="#EE5522"/>
</radialGradient>
<radialGradient id="paint9_radial_72_5089" cx="0" cy="0" r="1" gradientUnits="userSpaceOnUse" gradientTransform="scale(147)">
<stop stop-color="#FFBB33"/>
<stop offset="1" stop-color="#EE5522"/>
</radialGradient>
<radialGradient id="paint10_radial_72_5089" cx="0" cy="0" r="1" gradientUnits="userSpaceOnUse" gradientTransform="scale(98)">
<stop stop-color="#FFBB33"/>
<stop offset="1" stop-color="#EE5522"/>
</radialGradient>
<radialGradient id="paint11_radial_72_5089" cx="0" cy="0" r="1" gradientUnits="userSpaceOnUse" gradientTransform="scale(74.48)">
<stop stop-color="#FFBB33"/>
<stop offset="1" stop-color="#EE5522"/>
</radialGradient>
<radialGradient id="paint12_radial_72_5089" cx="0" cy="0" r="1" gradientUnits="userSpaceOnUse" gradientTransform="scale(49)">
<stop stop-color="#FFBB33"/>
<stop offset="1" stop-color="#EE5522"/>
</radialGradient>
<linearGradient id="paint13_linear_72_5089" x1="-16.5763" y1="6.0332" x2="-4.10762" y2="40.2906" gradientUnits="userSpaceOnUse">
<stop stop-color="#F7882B"/>
<stop offset="1" stop-color="#EE5522"/>
</linearGradient>
<linearGradient id="paint14_linear_72_5089" x1="-10.0555" y1="27.6269" x2="47.0402" y2="48.408" gradientUnits="userSpaceOnUse">
<stop stop-color="#F7882B"/>
<stop offset="1" stop-color="#EE5522"/>
</linearGradient>
<linearGradient id="paint15_linear_72_5089" x1="-28.1521" y1="23.6223" x2="20.6676" y2="81.8034" gradientUnits="userSpaceOnUse">
<stop stop-color="#F7882B"/>
<stop offset="1" stop-color="#EE5522"/>
</linearGradient>
<linearGradient id="paint16_linear_72_5089" x1="7.65786" y1="43.4299" x2="97.4132" y2="27.6036" gradientUnits="userSpaceOnUse">
<stop stop-color="#F7882B"/>
<stop offset="1" stop-color="#EE5522"/>
</linearGradient>
<linearGradient id="paint17_linear_72_5089" x1="20.1108" y1="55.2539" x2="134.302" y2="13.6916" gradientUnits="userSpaceOnUse">
<stop stop-color="#F7882B"/>
<stop offset="1" stop-color="#EE5522"/>
</linearGradient>
<linearGradient id="paint18_linear_72_5089" x1="-36.75" y1="63.6528" x2="94.7993" y2="139.603" gradientUnits="userSpaceOnUse">
<stop stop-color="#F7882B"/>
<stop offset="1" stop-color="#EE5522"/>
</linearGradient>
<linearGradient id="paint19_linear_72_5089" x1="-82.881" y1="30.1661" x2="-20.5376" y2="201.453" gradientUnits="userSpaceOnUse">
<stop stop-color="#F7882B"/>
<stop offset="1" stop-color="#EE5522"/>
</linearGradient>
<linearGradient id="paint20_linear_72_5089" x1="-35.1938" y1="96.6943" x2="164.641" y2="169.428" gradientUnits="userSpaceOnUse">
<stop stop-color="#F7882B"/>
<stop offset="1" stop-color="#EE5522"/>
</linearGradient>
<linearGradient id="paint21_linear_72_5089" x1="61.3724" y1="106.3" x2="281.06" y2="-20.5362" gradientUnits="userSpaceOnUse">
<stop stop-color="#F7882B"/>
<stop offset="1" stop-color="#EE5522"/>
</linearGradient>
<linearGradient id="paint22_linear_72_5089" x1="-101.348" y1="85.0407" x2="74.4033" y2="294.493" gradientUnits="userSpaceOnUse">
<stop stop-color="#F7882B"/>
<stop offset="1" stop-color="#EE5522"/>
</linearGradient>
<linearGradient id="paint23_linear_72_5089" x1="-88.5317" y1="126.436" x2="172.77" y2="309.401" gradientUnits="userSpaceOnUse">
<stop stop-color="#F7882B"/>
<stop offset="1" stop-color="#EE5522"/>
</linearGradient>
<linearGradient id="paint24_linear_72_5089" x1="-54.5106" y1="167.766" x2="292.207" y2="280.421" gradientUnits="userSpaceOnUse">
<stop stop-color="#F7882B"/>
<stop offset="1" stop-color="#EE5522"/>
</linearGradient>
<linearGradient id="paint25_linear_72_5089" x1="150.107" y1="125.955" x2="410.414" y2="-184.267" gradientUnits="userSpaceOnUse">
<stop stop-color="#F7882B"/>
<stop offset="1" stop-color="#EE5522"/>
</linearGradient>
<linearGradient id="paint26_linear_72_5089" x1="72.9016" y1="200.295" x2="486.845" y2="49.6321" gradientUnits="userSpaceOnUse">
<stop stop-color="#F7882B"/>
<stop offset="1" stop-color="#EE5522"/>
</linearGradient>
<linearGradient id="paint27_linear_72_5089" x1="-80.4433" y1="221.016" x2="376.322" y2="387.265" gradientUnits="userSpaceOnUse">
<stop stop-color="#F7882B"/>
<stop offset="1" stop-color="#EE5522"/>
</linearGradient>
<linearGradient id="paint28_linear_72_5089" x1="-22.522" y1="-18.8982" x2="-61.5778" y2="27.6466" gradientUnits="userSpaceOnUse">
<stop stop-color="#F7882B"/>
<stop offset="1" stop-color="#EE5522"/>
</linearGradient>
<linearGradient id="paint29_linear_72_5089" x1="-12.5695" y1="-34.534" x2="-83.9392" y2="-8.55757" gradientUnits="userSpaceOnUse">
<stop stop-color="#F7882B"/>
<stop offset="1" stop-color="#EE5522"/>
</linearGradient>
<linearGradient id="paint30_linear_72_5089" x1="-43.4304" y1="-7.65822" x2="-59.2567" y2="82.0971" gradientUnits="userSpaceOnUse">
<stop stop-color="#F7882B"/>
<stop offset="1" stop-color="#EE5522"/>
</linearGradient>
<linearGradient id="paint31_linear_72_5089" x1="-58.8005" y1="-0.000305176" x2="-58.8005" y2="121.52" gradientUnits="userSpaceOnUse">
<stop stop-color="#F7882B"/>
<stop offset="1" stop-color="#EE5522"/>
</linearGradient>
<linearGradient id="paint32_linear_72_5089" x1="-47.2453" y1="-56.3046" x2="-163.607" y2="41.3348" gradientUnits="userSpaceOnUse">
<stop stop-color="#F7882B"/>
<stop offset="1" stop-color="#EE5522"/>
</linearGradient>
<linearGradient id="paint33_linear_72_5089" x1="-78.8265" y1="-66.1431" x2="-215.522" y2="96.7638" gradientUnits="userSpaceOnUse">
<stop stop-color="#F7882B"/>
<stop offset="1" stop-color="#EE5522"/>
</linearGradient>
<linearGradient id="paint34_linear_72_5089" x1="-120.881" y1="21.3141" x2="-76.8308" y2="271.133" gradientUnits="userSpaceOnUse">
<stop stop-color="#F7882B"/>
<stop offset="1" stop-color="#EE5522"/>
</linearGradient>
<linearGradient id="paint35_linear_72_5089" x1="-45.2497" y1="-124.322" x2="-302.18" y2="-30.8065" gradientUnits="userSpaceOnUse">
<stop stop-color="#F7882B"/>
<stop offset="1" stop-color="#EE5522"/>
</linearGradient>
<linearGradient id="paint36_linear_72_5089" x1="-88.5321" y1="-126.436" x2="-349.833" y2="56.5287" gradientUnits="userSpaceOnUse">
<stop stop-color="#F7882B"/>
<stop offset="1" stop-color="#EE5522"/>
</linearGradient>
<linearGradient id="paint37_linear_72_5089" x1="-139.006" y1="-108.603" x2="-363.451" y2="178.674" gradientUnits="userSpaceOnUse">
<stop stop-color="#F7882B"/>
<stop offset="1" stop-color="#EE5522"/>
</linearGradient>
<linearGradient id="paint38_linear_72_5089" x1="-169.699" y1="97.9752" x2="32.7837" y2="448.686" gradientUnits="userSpaceOnUse">
<stop stop-color="#F7882B"/>
<stop offset="1" stop-color="#EE5522"/>
</linearGradient>
<linearGradient id="paint39_linear_72_5089" x1="-213.151" y1="-0.000305176" x2="-213.151" y2="440.51" gradientUnits="userSpaceOnUse">
<stop stop-color="#F7882B"/>
<stop offset="1" stop-color="#EE5522"/>
</linearGradient>
<linearGradient id="paint40_linear_72_5089" x1="-180.174" y1="-151.184" x2="-492.62" y2="221.175" gradientUnits="userSpaceOnUse">
<stop stop-color="#F7882B"/>
<stop offset="1" stop-color="#EE5522"/>
</linearGradient>
<linearGradient id="paint41_linear_72_5089" x1="15.2768" y1="8.81973" x2="33.5048" y2="-22.7521" gradientUnits="userSpaceOnUse">
<stop stop-color="#F7882B"/>
<stop offset="1" stop-color="#EE5522"/>
</linearGradient>
<linearGradient id="paint42_linear_72_5089" x1="27.6269" y1="-10.0557" x2="6.84575" y2="-67.1514" gradientUnits="userSpaceOnUse">
<stop stop-color="#F7882B"/>
<stop offset="1" stop-color="#EE5522"/>
</linearGradient>
<linearGradient id="paint43_linear_72_5089" x1="36.1916" y1="6.38135" x2="49.3802" y2="-68.4148" gradientUnits="userSpaceOnUse">
<stop stop-color="#F7882B"/>
<stop offset="1" stop-color="#EE5522"/>
</linearGradient>
<linearGradient id="paint44_linear_72_5089" x1="28.3469" y1="-33.7828" x2="-41.4704" y2="-92.3664" gradientUnits="userSpaceOnUse">
<stop stop-color="#F7882B"/>
<stop offset="1" stop-color="#EE5522"/>
</linearGradient>
<linearGradient id="paint45_linear_72_5089" x1="29.3999" y1="-50.9225" x2="-75.8395" y2="-111.683" gradientUnits="userSpaceOnUse">
<stop stop-color="#F7882B"/>
<stop offset="1" stop-color="#EE5522"/>
</linearGradient>
<linearGradient id="paint46_linear_72_5089" x1="72.3835" y1="-12.7634" x2="46.0063" y2="-162.356" gradientUnits="userSpaceOnUse">
<stop stop-color="#F7882B"/>
<stop offset="1" stop-color="#EE5522"/>
</linearGradient>
<linearGradient id="paint47_linear_72_5089" x1="76.3836" y1="44.0997" x2="167.524" y2="-113.759" gradientUnits="userSpaceOnUse">
<stop stop-color="#F7882B"/>
<stop offset="1" stop-color="#EE5522"/>
</linearGradient>
<linearGradient id="paint48_linear_72_5089" x1="96.6946" y1="-35.1941" x2="23.9606" y2="-235.029" gradientUnits="userSpaceOnUse">
<stop stop-color="#F7882B"/>
<stop offset="1" stop-color="#EE5522"/>
</linearGradient>
<linearGradient id="paint49_linear_72_5089" x1="41.9813" y1="-115.343" x2="-196.393" y2="-202.104" gradientUnits="userSpaceOnUse">
<stop stop-color="#F7882B"/>
<stop offset="1" stop-color="#EE5522"/>
</linearGradient>
<linearGradient id="paint50_linear_72_5089" x1="130.29" y1="22.9734" x2="177.769" y2="-246.293" gradientUnits="userSpaceOnUse">
<stop stop-color="#F7882B"/>
<stop offset="1" stop-color="#EE5522"/>
</linearGradient>
<linearGradient id="paint51_linear_72_5089" x1="153.763" y1="-13.4527" x2="125.961" y2="-331.229" gradientUnits="userSpaceOnUse">
<stop stop-color="#F7882B"/>
<stop offset="1" stop-color="#EE5522"/>
</linearGradient>
<linearGradient id="paint52_linear_72_5089" x1="163.555" y1="-66.0809" x2="26.9887" y2="-404.095" gradientUnits="userSpaceOnUse">
<stop stop-color="#F7882B"/>
<stop offset="1" stop-color="#EE5522"/>
</linearGradient>
<linearGradient id="paint53_linear_72_5089" x1="6.10352e-05" y1="-195.951" x2="-404.965" y2="-195.951" gradientUnits="userSpaceOnUse">
<stop stop-color="#F7882B"/>
<stop offset="1" stop-color="#EE5522"/>
</linearGradient>
<linearGradient id="paint54_linear_72_5089" x1="106.575" y1="-184.594" x2="-274.918" y2="-404.849" gradientUnits="userSpaceOnUse">
<stop stop-color="#F7882B"/>
<stop offset="1" stop-color="#EE5522"/>
</linearGradient>
<linearGradient id="paint55_linear_72_5089" x1="221.016" y1="-80.4434" x2="54.7665" y2="-537.209" gradientUnits="userSpaceOnUse">
<stop stop-color="#F7882B"/>
<stop offset="1" stop-color="#EE5522"/>
</linearGradient>
<radialGradient id="paint56_radial_72_5089" cx="0" cy="0" r="1" gradientUnits="userSpaceOnUse" gradientTransform="scale(588)">
<stop stop-color="#FFBB33"/>
<stop offset="1" stop-color="#EE5522"/>
</radialGradient>
<clipPath id="clip0_72_5089">
<rect width="392" height="294" fill="white"/>
</clipPath>
</defs>
</svg>
