<svg width="411" height="247" viewBox="0 0 411 247" fill="none" xmlns="http://www.w3.org/2000/svg">
<g clip-path="url(#clip0_72_5178)">
<path d="M410.127 0H0V246.076H410.127V0Z" fill="#46CCB8"/>
<path d="M45.114 0H0V45.114H45.114V0Z" fill="#46CCB8"/>
<path d="M86.1268 -3.05176e-05H41.0128V45.114H86.1268V-3.05176e-05Z" fill="#49CDB8"/>
<path d="M45.114 41.0126H0V86.1266H45.114V41.0126Z" fill="#4CCDB8"/>
<path d="M127.14 -3.05176e-05H82.0257V45.114H127.14V-3.05176e-05Z" fill="#4FCEB8"/>
<path d="M86.1268 41.0126H41.0128V86.1266H86.1268V41.0126Z" fill="#52CEB8"/>
<path d="M45.114 82.0253H0V127.139H45.114V82.0253Z" fill="#55CFB8"/>
<path d="M168.152 -3.05176e-05H123.038V45.114H168.152V-3.05176e-05Z" fill="#58D0B8"/>
<path d="M127.14 41.0126H82.0257V86.1266H127.14V41.0126Z" fill="#5BD0B8"/>
<path d="M86.1268 82.0253H41.0128V127.139H86.1268V82.0253Z" fill="#5DD1B8"/>
<path d="M45.114 123.038H0V168.152H45.114V123.038Z" fill="#60D1B8"/>
<path d="M209.165 -3.05176e-05H164.051V45.114H209.165V-3.05176e-05Z" fill="#62D2B8"/>
<path d="M168.152 41.0126H123.038V86.1266H168.152V41.0126Z" fill="#65D3B8"/>
<path d="M127.14 82.0253H82.0257V127.139H127.14V82.0253Z" fill="#67D3B8"/>
<path d="M86.1268 123.038H41.0128V168.152H86.1268V123.038Z" fill="#6AD4B9"/>
<path d="M45.114 164.051H0V209.165H45.114V164.051Z" fill="#6CD4B9"/>
<path d="M250.178 -3.05176e-05H205.064V45.114H250.178V-3.05176e-05Z" fill="#6ED5B9"/>
<path d="M209.165 41.0126H164.051V86.1266H209.165V41.0126Z" fill="#71D6B9"/>
<path d="M168.152 82.0253H123.038V127.139H168.152V82.0253Z" fill="#73D6B9"/>
<path d="M127.14 123.038H82.0257V168.152H127.14V123.038Z" fill="#75D7B9"/>
<path d="M86.1268 164.051H41.0128V209.165H86.1268V164.051Z" fill="#77D7B9"/>
<path d="M45.114 205.063H0V250.177H45.114V205.063Z" fill="#79D8B9"/>
<path d="M291.19 -3.05176e-05H246.076V45.114H291.19V-3.05176e-05Z" fill="#7BD8BA"/>
<path d="M250.178 41.0126H205.064V86.1266H250.178V41.0126Z" fill="#7ED9BA"/>
<path d="M209.165 82.0253H164.051V127.139H209.165V82.0253Z" fill="#80DABA"/>
<path d="M168.152 123.038H123.038V168.152H168.152V123.038Z" fill="#82DABA"/>
<path d="M127.14 164.051H82.0257V209.165H127.14V164.051Z" fill="#84DBBA"/>
<path d="M86.1268 205.063H41.0128V250.177H86.1268V205.063Z" fill="#86DBBB"/>
<path d="M332.203 -3.05176e-05H287.089V45.114H332.203V-3.05176e-05Z" fill="#88DCBB"/>
<path d="M291.19 41.0126H246.076V86.1266H291.19V41.0126Z" fill="#8ADCBB"/>
<path d="M250.178 82.0253H205.064V127.139H250.178V82.0253Z" fill="#8CDDBB"/>
<path d="M209.165 123.038H164.051V168.152H209.165V123.038Z" fill="#8EDEBC"/>
<path d="M168.152 164.051H123.038V209.165H168.152V164.051Z" fill="#8FDEBC"/>
<path d="M127.14 205.063H82.0257V250.177H127.14V205.063Z" fill="#91DFBC"/>
<path d="M373.215 -3.05176e-05H328.101V45.114H373.215V-3.05176e-05Z" fill="#93DFBD"/>
<path d="M332.203 41.0126H287.089V86.1266H332.203V41.0126Z" fill="#95E0BD"/>
<path d="M291.19 82.0253H246.076V127.139H291.19V82.0253Z" fill="#97E0BD"/>
<path d="M250.178 123.038H205.064V168.152H250.178V123.038Z" fill="#99E1BD"/>
<path d="M209.165 164.051H164.051V209.165H209.165V164.051Z" fill="#9BE2BE"/>
<path d="M168.152 205.063H123.038V250.177H168.152V205.063Z" fill="#9CE2BE"/>
<path d="M414.228 -3.05176e-05H369.114V45.114H414.228V-3.05176e-05Z" fill="#9EE3BF"/>
<path d="M373.215 41.0126H328.101V86.1266H373.215V41.0126Z" fill="#A0E3BF"/>
<path d="M332.203 82.0253H287.089V127.139H332.203V82.0253Z" fill="#A2E4BF"/>
<path d="M291.19 123.038H246.076V168.152H291.19V123.038Z" fill="#A4E4C0"/>
<path d="M250.178 164.051H205.064V209.165H250.178V164.051Z" fill="#A5E5C0"/>
<path d="M209.165 205.063H164.051V250.177H209.165V205.063Z" fill="#A7E6C1"/>
<path d="M414.228 41.0126H369.114V86.1266H414.228V41.0126Z" fill="#A9E6C1"/>
<path d="M373.215 82.0253H328.101V127.139H373.215V82.0253Z" fill="#ABE7C1"/>
<path d="M332.203 123.038H287.089V168.152H332.203V123.038Z" fill="#ACE7C2"/>
<path d="M291.19 164.051H246.076V209.165H291.19V164.051Z" fill="#AEE8C2"/>
<path d="M250.178 205.063H205.064V250.177H250.178V205.063Z" fill="#B0E8C3"/>
<path d="M414.228 82.0253H369.114V127.139H414.228V82.0253Z" fill="#B1E9C3"/>
<path d="M373.215 123.038H328.101V168.152H373.215V123.038Z" fill="#B3EAC4"/>
<path d="M332.203 164.051H287.089V209.165H332.203V164.051Z" fill="#B5EAC4"/>
<path d="M291.19 205.063H246.076V250.177H291.19V205.063Z" fill="#B6EBC5"/>
<path d="M414.228 123.038H369.114V168.152H414.228V123.038Z" fill="#B8EBC5"/>
<path d="M373.215 164.051H328.101V209.165H373.215V164.051Z" fill="#BAECC6"/>
<path d="M332.203 205.063H287.089V250.177H332.203V205.063Z" fill="#BBECC6"/>
<path d="M414.228 164.051H369.114V209.165H414.228V164.051Z" fill="#BDEDC7"/>
<path d="M373.215 205.063H328.101V250.177H373.215V205.063Z" fill="#BEEDC7"/>
<path d="M414.228 205.063H369.114V250.177H414.228V205.063Z" fill="#C0EEC8"/>
</g>
<defs>
<clipPath id="clip0_72_5178">
<rect width="410.127" height="246.076" fill="white"/>
</clipPath>
</defs>
</svg>
